/* XPM */
static char *_a486a9c1f984d408bc4676a1bc9bd88[] = {
/* columns rows colors chars-per-pixel */
"64 64 6 1 ",
"  c #362030",
". c #3D253B",
"X c #25131A",
"o c #C09344",
"O c #FFF1CC",
"+ c #FFD569",
/* pixels */
"                                                                ",
"                                                                ",
"  ...........................    .............................  ",
"  ...........................    .............................  ",
"  ...........................    .............................  ",
"  ...........................    .............................  ",
"  ...........................    .............................  ",
"  ...........................    .............................  ",
"  ...........................    .............................  ",
"  ...........................    .............................  ",
"  ...........................    .............................  ",
"  ...........................    .............................  ",
"  ......................XXXXXXXXXXXXXXXX......................  ",
"  ......................XXXXXXXXXXXXXXXX......................  ",
"  ......................XXXXXXXXXXXXXXXX......................  ",
"  ......................XXXXXXXXXXXXXXXX......................  ",
"  ..................XXXXooooooooooooooooXXXX..................  ",
"  ..................XXXXooooooooooooooooXXXX..................  ",
"  ..................XXXXooooooooooooooooXXXX..................  ",
"  ..................XXXXooooooooooooooooXXXX..................  ",
"  ..............XXXXooooOOOOOOOOOOOO++++ooooXXXX..............  ",
"  ..............XXXXooooOOOOOOOOOOOO++++ooooXXXX..............  ",
"  ..............XXXXooooOOOOOOOOOOOO++++ooooXXXX..............  ",
"  ..............XXXXooooOOOOOOOOOOOO++++ooooXXXX..............  ",
"  ..........XXXXooooOOOOOOOOoooooooo++++OOOOooooXXXX..........  ",
"  ..........XXXXooooOOOOOOOOoooooooo++++OOOOooooXXXX..........  ",
"  ..........XXXXooooOOOOOOOOoooooooo++++OOOOooooXXXX..........  ",
"  ..........XXXXooooOOOOOOOOoooooooo++++OOOOooooXXXX..........  ",
"  ..........XXXXooooOOOOooooOOOO++++oooo++++ooooXXXX..........  ",
"            XXXXooooOOOOooooOOOO++++oooo++++ooooXXXX            ",
"            XXXXooooOOOOooooOOOO++++oooo++++ooooXXXX            ",
"            XXXXooooOOOOooooOOOO++++oooo++++ooooXXXX            ",
"            XXXXoooo++++oooo++++++++oooo++++ooooXXXX            ",
"  ..........XXXXoooo++++oooo++++++++oooo++++ooooXXXX..........  ",
"  ..........XXXXoooo++++oooo++++++++oooo++++ooooXXXX..........  ",
"  ..........XXXXoooo++++oooo++++++++oooo++++ooooXXXX..........  ",
"  ..........XXXXooooOOOO++++oooooooo++++++++ooooXXXX..........  ",
"  ..........XXXXooooOOOO++++oooooooo++++++++ooooXXXX..........  ",
"  ..........XXXXooooOOOO++++oooooooo++++++++ooooXXXX..........  ",
"  ..........XXXXooooOOOO++++oooooooo++++++++ooooXXXX..........  ",
"  ..............XXXXoooo++++++++++++++++ooooXXXX..............  ",
"  ..............XXXXoooo++++++++++++++++ooooXXXX..............  ",
"  ..............XXXXoooo++++++++++++++++ooooXXXX..............  ",
"  ..............XXXXoooo++++++++++++++++ooooXXXX..............  ",
"  ..................XXXXooooooooooooooooXXXX..................  ",
"  ..................XXXXooooooooooooooooXXXX..................  ",
"  ..................XXXXooooooooooooooooXXXX..................  ",
"  ..................XXXXooooooooooooooooXXXX..................  ",
"  ......................XXXXXXXXXXXXXXXX......................  ",
"  ......................XXXXXXXXXXXXXXXX......................  ",
"  ......................XXXXXXXXXXXXXXXX......................  ",
"  ......................XXXXXXXXXXXXXXXX......................  ",
"  ...........................    .............................  ",
"  ...........................    .............................  ",
"  ...........................    .............................  ",
"  ...........................    .............................  ",
"  ...........................    .............................  ",
"  ...........................    .............................  ",
"  ...........................    .............................  ",
"  ...........................    .............................  ",
"  ...........................    .............................  ",
"  ...........................    .............................  ",
"                                                                ",
"                                                                "
};
