/* XPM */
static char *c64874c07e53465efb6342ba441a5a2bvQLExYLhK5mkDijx[] = {
/* columns rows colors chars-per-pixel */
"64 64 249 2 ",
"   c #113C2B",
".  c #064A2B",
"X  c #15452E",
"o  c #0A4E33",
"O  c #144D34",
"+  c #1B4C35",
"@  c #1C4D3B",
"#  c #184735",
"$  c #0B5435",
"%  c #0C5B36",
"&  c #0D5C3A",
"*  c #075936",
"=  c #145335",
"-  c #1B5135",
";  c #115B36",
":  c #15543A",
">  c #1B553B",
",  c #135C3C",
"<  c #1B5A3D",
"1  c #0B512F",
"2  c #234837",
"3  c #22533C",
"4  c #215B3E",
"5  c #29543D",
"6  c #0C623D",
"7  c #07653C",
"8  c #13623D",
"9  c #1B623E",
"0  c #146A3F",
"q  c #22623E",
"w  c #165C41",
"e  c #1C5B41",
"r  c #1A5641",
"t  c #235541",
"y  c #2B5642",
"u  c #235B43",
"i  c #2B5B45",
"p  c #2C5D49",
"a  c #255E4B",
"s  c #315D4A",
"d  c #325745",
"f  c #3A594D",
"g  c #0D6541",
"h  c #0D6C44",
"j  c #0A6B45",
"k  c #146542",
"l  c #1C6443",
"z  c #146B44",
"x  c #1C6A45",
"c  c #1D6549",
"v  c #146D49",
"b  c #1C6D4A",
"n  c #0D7349",
"m  c #15734C",
"M  c #1C724C",
"N  c #18774B",
"B  c #1D7450",
"V  c #1D7A53",
"C  c #167C54",
"Z  c #1E6E51",
"A  c #216444",
"S  c #236A46",
"D  c #25654A",
"F  c #2A644A",
"G  c #236C4B",
"H  c #2A6C4C",
"J  c #2A6745",
"K  c #33624C",
"L  c #356B4E",
"P  c #23724D",
"I  c #2A714D",
"U  c #256E51",
"Y  c #2A6D52",
"T  c #2D6451",
"R  c #346B54",
"E  c #3A6A55",
"W  c #3B6D59",
"Q  c #376753",
"!  c #247452",
"~  c #2B7453",
"^  c #247A54",
"/  c #2B7955",
"(  c #2E7358",
")  c #2C7D5B",
"_  c #247B58",
"`  c #327455",
"'  c #32735A",
"]  c #3C745B",
"[  c #347B5B",
"{  c #3B7B5C",
"}  c #357554",
"|  c #34704E",
" . c #3D7B62",
".. c #446C5C",
"X. c #496D5D",
"o. c #44725D",
"O. c #48765C",
"+. c #556D5D",
"@. c #497965",
"#. c #587466",
"$. c #587E71",
"%. c #496D61",
"&. c #556659",
"*. c #27825A",
"=. c #34815D",
"-. c #358361",
";. c #1B8058",
":. c #4A8369",
">. c #54846E",
",. c #5A836E",
"<. c #5C886F",
"1. c #598570",
"2. c #588A75",
"3. c #59947B",
"4. c #4E9274",
"5. c #658C7C",
"6. c #678878",
"7. c #66937E",
"8. c #71877A",
"9. c #5E9782",
"0. c #639381",
"q. c #6A9383",
"w. c #659A85",
"e. c #769687",
"r. c #719287",
"t. c #68A289",
"y. c #76A38D",
"u. c #7EAA96",
"i. c #78A994",
"p. c #78B599",
"a. c #6CB192",
"s. c #7FBAA4",
"d. c #79C3A3",
"f. c #929D94",
"g. c #84AC99",
"h. c #88AA99",
"j. c #92AB9D",
"k. c #84B29C",
"l. c #8AB39D",
"z. c #86B89F",
"x. c #8DB4A1",
"c. c #86BBA4",
"v. c #8CBBA4",
"b. c #87B8A4",
"n. c #93B5A3",
"m. c #9BB4A5",
"M. c #92BAA5",
"N. c #94BCAA",
"B. c #9ABBAA",
"V. c #99B5A9",
"C. c #95B3A6",
"Z. c #A7BAAF",
"A. c #88C2A9",
"S. c #93C2AD",
"D. c #9AC1AD",
"F. c #9CC4B2",
"G. c #98CAB3",
"H. c #9FD4BB",
"J. c #ACCBBD",
"K. c #A4C4B6",
"L. c #A5D2BE",
"P. c #B3CBBD",
"I. c #BCDACB",
"U. c #B7D7C7",
"Y. c #AED0C1",
"T. c #BAE8D3",
"R. c #B6E9D0",
"E. c #9ED9C3",
"W. c #D7CACC",
"Q. c #C6D8CD",
"!. c #C8DDD2",
"~. c #D4D5D3",
"^. c #DCD4D5",
"/. c #D4DAD5",
"(. c #DADAD6",
"). c #DCDCDB",
"_. c #D8D9D9",
"`. c #CCCCC9",
"'. c #E2DCDD",
"]. c #E7DADC",
"[. c #E1CED4",
"{. c #CBE3D5",
"}. c #CDE4DA",
"|. c #C5EBDA",
" X c #CBECDC",
".X c #C3E3D6",
"XX c #D3E2DC",
"oX c #DAE3DD",
"OX c #D1EADD",
"+X c #D2E1D7",
"@X c #CAF2DD",
"#X c #D4F2DF",
"$X c #E3E2DE",
"%X c #DBDEE1",
"&X c #E4DDE2",
"*X c #E8DDE1",
"=X c #CEEFE0",
"-X c #C7EDE0",
";X c #DCE4E2",
":X c #D5EDE2",
">X c #DDEBE3",
",X c #DAECE7",
"<X c #CFF3E3",
"1X c #CBFEE9",
"2X c #D3F3E3",
"3X c #DDF3EB",
"4X c #DDFBEC",
"5X c #D8F7E7",
"6X c #D4FFF4",
"7X c #DDFFF2",
"8X c #DCFFFB",
"9X c #CEFFF2",
"0X c #E4E4E3",
"qX c #EBE4E4",
"wX c #E4EAE5",
"eX c #EAEAE6",
"rX c #E5ECEA",
"tX c #ECECEB",
"yX c #E9E5E9",
"uX c #F3ECED",
"iX c #FAECED",
"pX c #F2E4E7",
"aX c #E4F3EB",
"sX c #EBF2ED",
"dX c #E3FAED",
"fX c #E8F8EC",
"gX c #F2F2EE",
"hX c #F8F7EF",
"jX c #EDECF0",
"kX c #FBEEF2",
"lX c #F5EEF2",
"zX c #ECF4F2",
"xX c #E4FEF4",
"cX c #EBFDF4",
"vX c #E5FFFA",
"bX c #EBFFFB",
"nX c #E6F0F1",
"mX c #F3F4F3",
"MX c #FCF4F4",
"NX c #F3FCF5",
"BX c #FBFAF6",
"VX c #FEF5FB",
"CX c #F6FFFD",
"ZX c #F4FFFB",
"AX c #FAFEFA",
"SX c #FDFDFA",
"DX c #FEFEFF",
"FX c #FDFDFC",
"GX c #F5F6F9",
/* pixels */
"VXVXDXcXbXcXCXDXAXmXNXCXcXNXDXVXGXVXVXVXVXVXAXDXAXAXAXAXAXAXAXAXAXAXAXAXAXAXAXBXVXDXVXVXDXCXcXcXNXNXcXNXNXcXcXcXdXCXCXAXDXVXVXVX",
"VXDXCXxXvXvXcXNXAXZXcXbXbXZXCXCXCXCXCXCXCXNXNXCXCXCXZXZXZXZXZXNXcXcXcXcXcXcXZXCXCXZXZXNXZXZXbXbXZXZXZXbXcXbXbXbXbXZXcXCXDXVXVXVX",
"GXzXY.2.w.9.7.e.7.5.3.3.3.0.q.6.0.0.0.0.0.7.0.0.0.0.0.0.0.0.0.7.q.q.w.0.3.3.9.0.w.5.0.0.3.9.w.0.5.6.7.7.5.5.q.5.7.8.h.ZXNXDXDXVX",
"CXbXb.o w , < F > u c , c c @ t > > > r w e e e w w w w w w w < O + : : ; & , w e > t a r e e @ t # y y t p u @ @ # #.ZXCXDXVXVX",
"cXbXc.$ b M k G l G P k M b w :.' R R R W W ] ] W W W W W W W W o...W W ' ( ( ( ' R Q E W ..W E @.< F Y c Y D A  .p $.bXcXCXAXDX",
"cXbXG.l ) *.~ ` H ~ ^ z V ! U s.7X7X7X7X7X7X7X7X7X7X7X7X7X7XxXxXfXfX4X4X9X9X9X6X6XvX7X4XxXxXxXvXi.Y ( ~ c ( ! ( ' r @.vXxXCXCXDX",
"NXNXx.O < 9 9 A q A x * M k e S.xXaXwXwXwXwXwXwXwXwXwXwXeXeXeXeXeXgXmXfX5X5X7XvX.XcXzXwXmX0X'.NXp.w k b 6 v k c c e >.vXcXCXAXDX",
"SXNXB.i J H H | J J P k =.G e F.rXeX0X0XqXeXeXqXqXqXqXqXqXqXqXqX].qX$XU.j.r.q.e.j.}.wX0XkX].[.CXb., k _ M ^ v ! G F 2.xXZXCXDXDX",
"BXAXm.- H H q J J S S x b G < F.ZXtXmXmXmXBXGXBXVXtXDXgXuXDXtXBXMXeXAXU.2 K p t ..5XZXAXVXeXVXNXc.; P b b B v b U < >.bXCXDXDXDX",
"hXAXn.- J S 9 J q 9 x 0 z x = S.XX).tX$X).0X~.(.0X~.eX).).eX~.$XeX+XfXJ.+ K p t E =X:X/.sXW.^.aXk.% G x v b k b U > >.bXCXDXDXDX",
"AXNXN.< P P x I x b N h m M , G.cXAXBXwXtXBXsXmXmXwXZXsXsXZXwXmXfXaXcXI.K W R R W xXxX>XDXqXeXCXb., I G b M b G Y e >.bXAXAXAXVX",
"zXNXb.$ b m 0 x 0 0 h 7 h z % S.NXmXeX).tXmX0XtXsXwXzXrXrXzXwXaXwX3XxXJ.y @ + + f 2XzX;XmXeXpXNXk.= l l k b k l Y < >.cXAXAXVXVX",
"NXcXv.; N N z M x z m h m M & G.sX0XeXeXtXqX~.0XwX0XrXwXwXrX>XwX>X>X3X!.e.y.e.y.h.>XrX0XpX*XpXtXz.: G x x M z b Y e ,.cXAXAXVXVX",
"AXNXS., ^ V b P x x N m M ! w F.ZXtXBXBXtXgXmXDXzXzXzXzXzXzXxXfXzXaXdXxX7XbXbXbXCXCXtXMXVXpXkXZXx.< I G P ! b P ! e >.bXAXAXVXVX",
"mXZXx.O c x 8 S l 9 k 8 l c @ B.cX).tXwX/.aXaXQ.:X:X:X:X:X=X2X X3X5X X X<X<X=X}.!.rX0XqXlX'.'.cXk.= l l k z k z ! < >.bXZXAXVXVX",
"AXAXB.< ~ ~ S ~ H H ! b ! Y y K.DX'.sXaX:XbXI.$.X.X...o.o.W o.W Q o.o.o.o.Q ..@.6.}.cXwXGXtX0XCXb.< I G M ! N P ! < >.bXZXDXVXVX",
"BXAXn.= c b , S < 9 k 6 z c = V.VXkXmX:X7X8X1XK y u < A l & c w , c k D l < u - L xXxXcXcXrXuXNXv.. H x & P 0 8 S > >.bXZXCXDXDX",
"BXZXM.> I P l I l l z z b G < B.pXW.).2XE.p.d.F u R D c b g M ^ M b & x G l S A { A.k.J.OX0X&XwXz.. ~ l ; P x x H < >.bXCXCXDXDX",
"BXZXM.> I P x I H G P N ! ~ e K.DXiXNX7X9.o ] R y W F Y / ! I G ! ! b / ) x P S 8 9 4 l.3XGXkXBXv.< =.I x / P S I 4 1.bXCXCXDXVX",
"mXZXn.= G P l I < 8 0 6 k l O M.~.oX2X6Xa., e p y y > H , l G ; , b k x k % k 0 b l O k.cX).'.tXu.1 H x 0 x 8 ; I < 1.bXCXCXDXVX",
"BXZXM.> I P l I I I ! N ! ~ u G.cXXX@. .( D :.K.I.J.Y.L.} G :.H ! ) P b N P *.M ^ =.= k.bXQ.'.tXv.< H ~ / ! P ~ H < >.bXCXCXDXDX",
"BXZXM.= G M 9 H 9 9 z 6 k l O v.bX Xu w c w W <XcXxXvX8X .$ D l k b 8 k l k 0 . & l o u.bX,XCXCXk., 9 8 x 8 8 x H > >.bXCXCXDXDX",
"mXZXx.= G P 9 H J S N z N G : S.|.I.u ( Y : s :X{.P.M.G.{ l D H k b x ~ H D  .4.3.< A 0.H.F.J.B.t.S ~ x S x x x I < 1.bXCXDXDXVX",
"BXZXM.< ~ ^ S ` I P P N ! ! e G.vX|.p  .' W #.{.NXm.+ F l / c ! ! M G ~ F K v.vX@XR ] H e a T F ~ ; ~ G P / / x ~ u <.bXCXCXDXVX",
"mXZXl.= G b 8 S 9 9 k 6 z l = v.bXJ.d X p 2 d +XzXj.3 G z 6 z 6 g z G = y 2 j.cXU.2 # D : U Z c G S < x ; P 8 8 H > >.vXZXCXDXDX",
"AXAXD.4 ~ ^ S ~ I P P N ! ~ e G.aX/.K.B.K.J.Z.wXcXn.y ~ ^ V *._ V v G :.J.Z.~.wXaXK.Y.t.c ) V g G H G ~ x / x G H < >.bXZXCXDXDX",
"mXZXn.= G b 9 S l l z z b c : N.NXmXCXZXxXCXNXaXNXn.< b h 7 h 7 m z e 2.NXNXGXVXyXzXxXy.: b M g ! l G I x P x P H < >.bXCXCXDXDX",
"BXAXM.> P P l I S x N z b G > D.sX(.).>XQ.;X(.~.aXh.: b m n V M z b = ..:X_.^.qXyXjX,Xu.] ' ! ) { , l x 8 x 8 l H < >.bXCXCXDXDX",
"AXZXM.> I ! x I I P P N ! ! e F.DXMXtXNXsXZXeXNXfXx.w ! V N ) ! ^ [ D ,.ZXZXtXVX&XtXzX3XxX6X1X8Xa.H ` ~ I =.P ~ H < >.bXCXCXDXDX",
"gXNXl.O x b 9 S A l b z b c : N.qXkXeX0XwXNX(.wXcXx.< b z 6 x k % l : @.xXaX0XmXyXGXzXrXcXaXoXdXi.; l , 8 x & 8 I 4 >.bXCXCXDXDX",
"BXZXM.> I P x I J S N z M G > D.qXeX0X)./.rX~.).aXh.: G M M ` ~ H ~ F @.<X}.XXrX%XrX%X~.).^.].eXv.< I S P P x P I 4 1.bXCXCXDXDX",
"MXAXn.> I M x I G G M z M P < F.CXtXzXDXtXZXtXzXcXM.e ! M z ! G ! G e :.vXbXbXbXnXGXmXGXVXiXiXBXl.= I x x P 9 P I e 1.bXCXDXDXDX",
"kXBXB.O k m 7 M 8 % ! k & ~ . v.,X;X).).%X0X).+X:Xk.. b m 7 V j 7 z , { T.U.3X;X;X;X).).tX).W.sXg.= x k 0 x 9 9 G ; >.vXCXDXVXVX",
"VXAXK.< B ;.h _ ) / ( G ( ] u L.bXzXjXtXuXuXtXwXxXF.u [ ! h *.N V *.P H @.d V.cXzXAXGXmXGXtX0XNXl.< P N S I S H P k 2.bXDXDXDXDX",
"MXNXv.$ n C g B c e - O y 3 X j.ZXGXmXlXkXkXmXsXZXn.  F ` l l 1 % 6 l < < @ K.ZX;XmXmXuXtXeXeXNXk.= x z x S 9 l x & >.xXCXVXAXAX",
"AXcXA.* n C g ! F p 7.i.g.h.e.Q.;X).).^.'.).(./.,Xh.+ Q K - @.p.a./ l G A F S. XXX0X&X&X$X(.$XaXl.: b m x G A S P , >.bXDXDXDXDX",
"ZXcXA.* m C 6 ( K d I.vXxXbX2XNXZXZXZXNXZXNXNXcXbXB.y Q K 2 7.4X7X:.; ~ k $ A.vXZXCXkXMXVXeXgXNXl.: b z x G l S P , >.bXDXDXDXDX",
"NXcXc.$ v v , ] y 2 K.2X|.|.|.<X X X X}.}. X|.|.1Xy.O F L 5 <.@X5XO.= ~ z v d.1XY.aX^.].iX^.(.aXg.= b z 0 x 9 l x & >.xXAXVXAXAX",
"AXAXD.e ! ! F >.4X{.4X7XH.] ] ] ] ] ] ] ] { { [ -.[ k [ F > 5.xXdX6.F ! h N -.' q.rXeXpXMXqXtXNXx.< P M P I J H P k >.bXDXDXDXDX",
"MXBXB.- D G F ,.xXcX<XvXR.: e D 8 k l l l l x z & M k G < > 5.4XcX$.# l h n n , Q aXVXpXMXqXtXZXl.: b z x S l S b & :.vXDXVXVXVX",
"MXAXB.+ G G y ,.OX5XB.b.y.D H H 8 M k P M 0 ! b 6 b ! ; w.2.i.2XoXf.,.4.7 C n k @.OX).$X].W.).aXl.: b z x G l S P , >.bXDXDXDXDX",
"AXAXS.< U G a 6.cXcX6.2 K F R 4 c ~ G ~ ~ S / ! ~ x k F T.xX5XNXAXAXbXR.b j j M R xXAXMXMXuXmXzXl.: P z x G A S P , >.bXDXDXDXDX",
"NXxXc.$ v k > 1.5X}.#.  y 3 2 i + > - 3 3 + 3 > > > 3 y U.zX>X(.'.$XdXL.. 6 N l ] 5XoX0XuX'.).aXg.= x z 0 x 9 9 P , >.bXDXDXDXDX",
"ZXbXA.6 V v c 3.5XdX!.U.T.Y.J.I.U.U.U.I.I.U.I.I.J.I.!.K.>XtXeXuXpXeXzXI.H [ ) ; W 2XOXwXGX0XyXCXx.< P N x P S S P 8 >.bXDXDXVXDX",
"ZXbXA.6 V N l 3.7XvXbX7XxXvXbXxXcXcXcXNXNXNXmXNXZXZXCXsXAXmXuXVXiXMXZXU.+ < A A L vXbXzXzXtXtXzXx.- P N x P l S P 8 >.bXDXDXVXDX",
"mXcXc.$ N m k :.L.v.G.S.c.S.S.Y.{.!./.~.~.).~.~.~.`.~._.).'.^.&X&X)./.P.@.>.} A W G.n.Y.>X0X&X/.h.= x z x x 9 l P , >.bXDXDXDXDX",
"VXAXB.: ! _ k [ F O F H ~ e e S.cXfXNXgXgXVXuXGXDXmXDXCXmXmXjXgXVXMXgXZXxXxXy.- L K X j.aXrXlXCXn.< P M P I J H P , >.bXDXDXDXDX",
"MXAXm.X D ! % D < F H $ H k o G.5XoXeX$X$XuX'.qXtX).qXwX).jXjXyX0XeX).wXOX4X7.X F a + B.3X;XyXzXh.= x z 0 x 8 l G , >.bXCXDXDXDX",
"BXAXm.5 R ` J ` } A H H G ~ c S.,X).0X$X).eX&X0X0X).qX'.'.qX).0X0XwX;XoX}.vX0.p u  .a b.3X;X^.mXg.A ~ I x ) x ~ / A 2.bXZXCXAXAX",
"mXZXm.2 K H 9 P I 9 J H D < $ A.NXtXGXGXgXBXmXmXGXtXGXmXmXBXuXGXmXGXmXNXCXbXq.@ @.a   g.ZXzXtXCXk.< H H 8 ! k c H < >.vXcXZXBXBX",
"cXcXM.> H P 0 M 0 x x , x ~ w c.3X_.0XoX).wX)._.;X_.0X).).0X).;X).0XqX_.;X}.q.%...X.f h.,X_._.>Xl.: D I k ! b b U > >.bXNXAXAXAX",
"cXbXM.> I P z N N ^ ^ G ~ / c G.cXrXzXsXtXNXsXrXzXrXmXsXsXmXrXmXuXMXVX0XzXcX3XxX4XZXcXcXCXqXtXNXz., l ~ k ! P c Y u 1.cXZXAXAXAX",
"xXbXv.- P M h N 7 7 k 9 < = . N.NXtXmXtXtXmXtXtXtXtXmXtXtXmXtXuXuXpXmXaXcXNXZXNXaXmX).0XAXwX>XcXp.l x / k b b k Y u 1.bXZXAXBXVX",
"cXcXM.> H P z N N P ~ u @.N.x.I.wX).eX0X).0X'.'.&X).qX'.'.0X).'.].$X0XU.e.7.r.8.f.$X$X$XrXQ.e.7.4.k z B v B M b ( y 1.cXZXAXVXVX",
"NXZXV.3 H I x P l I L + 6.NXcXoXVXiXVXMXiXMXMXMXMXkXVXMXMXVXkXMXMXNXcXI.i + K d f $XSXhXaX#X@.: ! z z v m V B ! ( u 1.bXCXDXDXDX",
"NXAXm.2 F G 8 x S < K d #.+XoXwX'.^.qX'.^.'.^.'.'.^.'.^.^.'.^.)./.{.T.H.: e ] 5 +.wX/./.!.R.l 8 z v v h h v g k G > >.xXNXCXDXDX",
"AXcXZ.y ] ~ ~ x [ A E.vXOXaXsXoXsXsXtXtXtXrXrXwXzXoXZXwXwXZXoXsX5X<.H ~ / M d.6X|.#XcXh.5 ~ ^ V V V V V V V ^ ! ~ Y >.bXZXZXDXDX",
"CXcXB.# D l b x 8 : G.vX4XNXZXcXcXcXcXbXbXcXcXcXbXdXZXxXxXZXdXbXxX3., & 6 & d.6X7X4XxXg.4 x 7 7 h g g g k z k k c e @.bXZXCXCXNX",
"bXbXN.O H b z M ! G t.b.i.l.g.g.g.u.u.u.u.u.u.u.g.u.g.u.g.g.u.u.p.H l / ^ k 4.p.i.y.k.:.< P V V ! G G b U U U G Y t $.bXZXZXCXAX",
"xXbXN.> ` ~ G / G < H u + y t y t t t y y y y y 3 p > u u > p 3 i < D H D D H u 4 3 L i < H b b G F D D D H D F  .p 5.bXZXNXDXGX",
"cXZXV.y p e = u 4 i K y d Q p s s s s s s K K K i E y K K y E i s K K y 3 K Q d K y s K K K a u s i i i p p p p d 2 6.,XNXCXDXVX",
"AXCXaXU.=X5X2X7X@X2X2X X5X2X-X X X=X=X=X2X2X2X2X X5X X2X2X X5X X X X}.5X:X:X{.}.2X X X X@X2X XOX:XOXOXOX X=X=X=X4X!.3XCXDXDXDXVX",
"kXVXDXDXCXAXcXNXAXAXBXNXCXNXZXZXZXAXAXAXAXAXAXAXAXAXZXAXAXZXAXZXZXAXmXAXAXAXNXAXZXNXcXcXCXZXAXAXAXAXZXZXZXNXZXZXCXNXCXCXVXDXVXVX",
"VXVXVXDXAXAXSXAXAXSXBXAXDXNXCXCXAXAXAXAXAXAXAXAXAXSXAXAXAXAXSXAXgXAXMXBXMXAXMXAXfXZXcXNXCXAXVXAXVXAXNXNXZXZXNXNXNXCXDXDXDXVXVXVX"
};
