/* XPM */
static char *cc4cb9f6c7fe48428c29fbd305b5b05c[] = {
/* columns rows colors chars-per-pixel */
"64 64 7 1 ",
"  c #362030",
". c #25131A",
"X c #3D253B",
"o c #90919E",
"O c #ADC1CF",
"+ c #523B40",
"@ c #895A45",
/* pixels */
"    ........................................................    ",
"    ........................................................    ",
"  XX........................................................XX  ",
"  XX........................................................XX  ",
"........oooooooooooooooooooooooooooooooooooooooooooooooo........",
"........oooooooooooooooooooooooooooooooooooooooooooooooo........",
"........oooooooooooooooooooooooooooooooooooooooooooooooo........",
"........oooooooooooooooooooooooooooooooooooooooooooooooo........",
"....ooooOOOO....ooooOOOO................OOOOoooo....OOOOoooo....",
"....ooooOOOO....ooooOOOO................OOOOoooo....OOOOoooo....",
"....ooooOOOO....ooooOOOO................OOOOoooo....OOOOoooo....",
"....ooooOOOO....ooooOOOO................OOOOoooo....OOOOoooo....",
"....oooo........ooooOOOO++++@@@@@@@@++++OOOOoooo........oooo....",
"....oooo........ooooOOOO++++@@@@@@@@++++OOOOoooo........oooo....",
"....oooo........ooooOOOO++++@@@@@@@@++++OOOOoooo........oooo....",
"....oooo........ooooOOOO++++@@@@@@@@++++OOOOoooo........oooo....",
"....OOOO....++++ooooOOOOOOOOOOOOOOOOOOOOOOOOoooo++++....OOOO....",
"....OOOO....++++ooooOOOOOOOOOOOOOOOOOOOOOOOOoooo++++....OOOO....",
"....OOOO....++++ooooOOOOOOOOOOOOOOOOOOOOOOOOoooo++++....OOOO....",
"....OOOO....++++ooooOOOOOOOOOOOOOOOOOOOOOOOOoooo++++....OOOO....",
"....OOOO....@@@@OOOOOOOO................OOOOOOOO@@@@....OOOO....",
"....OOOO....@@@@OOOOOOOO................OOOOOOOO@@@@....OOOO....",
"....OOOO....@@@@OOOOOOOO................OOOOOOOO@@@@....OOOO....",
"....OOOO....@@@@OOOOOOOO................OOOOOOOO@@@@....OOOO....",
"....OOOO....@@@@........++++@@@@@@@@++++........@@@@....OOOO....",
"....OOOO....@@@@........++++@@@@@@@@++++........@@@@....OOOO....",
"....OOOO....@@@@........++++@@@@@@@@++++........@@@@....OOOO....",
"....OOOO....@@@@........++++@@@@@@@@++++........@@@@....OOOO....",
"....OOOO....@@@@++++@@@@++++@@@@@@@@++++@@@@++++@@@@....OOOO....",
"....OOOO....@@@@++++@@@@++++@@@@@@@@++++@@@@++++@@@@....OOOO....",
"....OOOO....@@@@++++@@@@++++@@@@@@@@++++@@@@++++@@@@....OOOO....",
"....OOOO....@@@@++++@@@@++++@@@@@@@@++++@@@@++++@@@@....OOOO....",
"....OOOO....@@@@++++@@@@++++@@@@@@@@++++@@@@++++@@@@....OOOO....",
"....OOOO....@@@@++++@@@@++++@@@@@@@@++++@@@@++++@@@@....OOOO....",
"....OOOO....@@@@++++@@@@++++@@@@@@@@++++@@@@++++@@@@....OOOO....",
"....OOOO....@@@@++++@@@@++++@@@@@@@@++++@@@@++++@@@@....OOOO....",
"....OOOO....@@@@++++@@@@++++@@@@@@@@++++@@@@++++@@@@....OOOO....",
"....OOOO....@@@@++++@@@@++++@@@@@@@@++++@@@@++++@@@@....OOOO....",
"....OOOO....@@@@++++@@@@++++@@@@@@@@++++@@@@++++@@@@....OOOO....",
"....OOOO....@@@@++++@@@@++++@@@@@@@@++++@@@@++++@@@@....OOOO....",
"....oooo....@@@@++++@@@@++++@@@@@@@@++++@@@@++++@@@@....oooo....",
"....oooo....@@@@++++@@@@++++@@@@@@@@++++@@@@++++@@@@....oooo....",
"....oooo....@@@@++++@@@@++++@@@@@@@@++++@@@@++++@@@@....oooo....",
"....oooo....@@@@++++@@@@++++@@@@@@@@++++@@@@++++@@@@....oooo....",
"....OOOO....@@@@++++@@@@++++@@@@@@@@++++@@@@++++@@@@....OOOO....",
"....OOOO....@@@@++++@@@@++++@@@@@@@@++++@@@@++++@@@@....OOOO....",
"....OOOO....@@@@++++@@@@++++@@@@@@@@++++@@@@++++@@@@....OOOO....",
"....OOOO....@@@@++++@@@@++++@@@@@@@@++++@@@@++++@@@@....OOOO....",
"....oooo....++++++++++++++++++++++++++++++++++++++++....oooo....",
"....oooo....++++++++++++++++++++++++++++++++++++++++....oooo....",
"....oooo....++++++++++++++++++++++++++++++++++++++++....oooo....",
"....oooo....++++++++++++++++++++++++++++++++++++++++....oooo....",
"....ooooOOOO........................................OOOOoooo....",
"....ooooOOOO........................................OOOOoooo....",
"....ooooOOOO........................................OOOOoooo....",
"....ooooOOOO........................................OOOOoooo....",
"........oooooooooooooooooooooooooooooooooooooooooooooooo........",
"........oooooooooooooooooooooooooooooooooooooooooooooooo........",
"........oooooooooooooooooooooooooooooooooooooooooooooooo........",
"........oooooooooooooooooooooooooooooooooooooooooooooooo........",
"  XX........................................................XX  ",
"  XX........................................................XX  ",
"    ........................................................    ",
"    ........................................................    "
};
