/* XPM */
static char *_9efbcb10baa447cd9b76af6146577dbBnO1EazdzkcEcDH1[] = {
/* columns rows colors chars-per-pixel */
"64 64 172 2 ",
"   c #050504",
".  c #080707",
"X  c #070906",
"o  c #090907",
"O  c #0C0C0A",
"+  c #130E0C",
"@  c #180F0B",
"#  c #0F110D",
"$  c #11120E",
"%  c #19120F",
"&  c #110F10",
"*  c #141412",
"=  c #191512",
"-  c #161914",
";  c #191B16",
":  c #1C1D1A",
">  c #211612",
",  c #221B16",
"<  c #221E1C",
"1  c #1C2017",
"2  c #1E211C",
"3  c #21231E",
"4  c #24281F",
"5  c #242522",
"6  c #2A2523",
"7  c #262924",
"8  c #292B26",
"9  c #2C2D2A",
"0  c #372D27",
"q  c #322F2D",
"w  c #2D3224",
"e  c #2E312C",
"r  c #31332E",
"t  c #36392F",
"y  c #2F2F30",
"u  c #2F3230",
"i  c #343532",
"p  c #3A3734",
"a  c #363935",
"s  c #393B36",
"d  c #373739",
"f  c #383738",
"g  c #373A38",
"h  c #3B3C3A",
"j  c #413934",
"k  c #403F38",
"l  c #3C4137",
"z  c #3E413D",
"x  c #41433E",
"c  c #4A493F",
"v  c #3F3F40",
"b  c #3F4140",
"n  c #434443",
"m  c #464945",
"M  c #494A46",
"N  c #464649",
"B  c #484749",
"V  c #474849",
"C  c #4B4C4B",
"Z  c #574841",
"A  c #4D5247",
"S  c #4E514C",
"D  c #51534E",
"F  c #58544C",
"G  c #55584E",
"H  c #4E4E51",
"J  c #504F52",
"K  c #4F5051",
"L  c #535453",
"P  c #585756",
"I  c #575955",
"U  c #595A55",
"Y  c #565659",
"T  c #59575D",
"R  c #57585B",
"E  c #5B5B5C",
"W  c #675751",
"Q  c #605D5E",
"!  c #5E6257",
"~  c #5F615C",
"^  c #606552",
"/  c #62635E",
"(  c #6B635F",
")  c #65695C",
"_  c #5E5E61",
"`  c #615F62",
"'  c #605E68",
"]  c #5F6061",
"[  c #636364",
"{  c #686767",
"}  c #666865",
"|  c #6A6A65",
" . c #656569",
".. c #686769",
"X. c #67696A",
"o. c #6B6B6C",
"O. c #716E6F",
"+. c #6E7462",
"@. c #6F706D",
"#. c #71736E",
"$. c #696671",
"%. c #676870",
"&. c #6D6D72",
"*. c #716E71",
"=. c #706F79",
"-. c #6F7072",
";. c #757777",
":. c #737374",
">. c #787676",
",. c #767977",
"<. c #797C77",
"1. c #797A76",
"2. c #727379",
"3. c #73717B",
"4. c #74737B",
"5. c #76767A",
"6. c #75747A",
"7. c #78777E",
"8. c #79767B",
"9. c #777879",
"0. c #79797D",
"q. c #7C7E7C",
"w. c #7C7A7C",
"e. c #807E7F",
"r. c #81876F",
"t. c #808277",
"y. c #82827E",
"u. c #888D78",
"i. c #797780",
"p. c #7D7C81",
"a. c #7E7C88",
"s. c #817F87",
"d. c #827E82",
"f. c #807E88",
"g. c #838385",
"h. c #858587",
"j. c #848284",
"k. c #898687",
"l. c #858982",
"z. c #888887",
"x. c #878789",
"c. c #87868F",
"v. c #848389",
"b. c #88878F",
"n. c #8A868A",
"m. c #878989",
"M. c #88888B",
"N. c gray54",
"B. c #8B8A8C",
"V. c #8C8A8C",
"C. c #908C8E",
"Z. c #929887",
"A. c #90918E",
"S. c #898791",
"D. c #8B8A94",
"F. c #8C8B91",
"G. c #928E92",
"H. c #909093",
"J. c #979797",
"K. c #949294",
"L. c #989495",
"P. c #9A9A93",
"I. c #97959B",
"U. c #99959B",
"Y. c #9B9A9D",
"T. c #9796A2",
"R. c #9E9BA1",
"E. c #9F9DA8",
"W. c #A09EA4",
"Q. c #A6A8A1",
"!. c #A6A4AA",
"~. c #AFB4A6",
/* pixels */
"7 7 r s M E &.&.5 ; 3 9 -   - 7 N E &.2.N - z 0.h.F.M.g.| 8 f n 9 ; O * =.&.&.c.0.C n 4 t x I E C 7 $ O 5 r z x h i 5 z z 9 a m ",
"s r s S [  .3.a.z - ; e s 3 e e e V R n 3 : C 0.x.H.M.x.:.i 9 f f O X X Y f.7.T.D.E C r s G [ &.3.C e - e a a a 9 7 z E K m i m ",
"D M L &.4.=.a.a.E * * $ ; : 4 s x a i 9 f e C 5.M.J.B.H.[ - ; : 9 O O X 8 w.D.E.n.I E h s ! &.7.&.[ n 9 s M S E a 7 C [ [ Y M C ",
"_ ..[ 4.3.&.$.$.[ e 9 : O O 5 m E } | | R C M X.q.A.M.h.i X O + 5 8 8 8 Z W L E M M | | C #.&.5.[ C L f h ~ } :.z : N  .[  .` ..",
" .=.[ $.&. .' T L f i i # : I } -.:.:.;.p.| 5 e | y.o.f O X * 9 V C I E ( j * 8 r f R } ~ } E Y E M x h e C } <.m m R [ [ ..Q [ ",
"L  .Y E ' T C H C f 8 a - - E X.:.,.;.:.h.V.&.; ! s 2 : 3 i L } [ }  .}  .I : 3 5 f N R h I } } C N f a e 3 A #.m S L E [ ` E [ ",
"T H L L E Y N n C f 5 9 3 # E 5.p.,.:.B.H.J.Y.q.Q.! I | o.:.w.g.V.H.J.h.w.w.I ; 5 e a i s o.o.I N h a r 9 2 ) #.[ o.h f [ ` I L ",
"B C C C C H N f f r 5 5 2 2 b :.,.:.F.I.Y.Y.A.P.~.l.M.q.w.q.j.g.h.B.I.Y.B.j.e.9 : 3 9 9 n | R n f h s 7 i n @.#.:.h.[ 5 v J L L ",
"B N n h n h s i r 9 5 5 - : # 5 K x.Y.W.W.J.o.u.r.) V.V.K.H.V.z.j.M.G.F.&.&.I i 8 : 3 s C | M i 9 8 8 n :.:.#.:.j.q.:.x : 5 N M ",
"f f f 9 5 7 9 i n f 5 5 - * o # O 7 h I I f s ~.Z.j.J.G.G.V.h.h.h.M.h.o.E C i a x 3 ; 9 [ } f 8 a 3 z p.x.q.w.:.h.:.:.M : O 3 r ",
"- * * O f R [ o.p.n 7 7 # O O O + O O $ ; - h #.D R H.I.H.G.V.F.H.0.M m n s i r x 9 - 5 L n 3 5 e 8 o.F.| R j.j.h.q.q.C O O - - ",
"# O O 7 [ :.:.o.o.9 7 5 O O O + * $ O O 3 9 n m h 9 7 J o.:.:...C h s l M h x h h i * : ; O X O : 9 5.M.R C L M.H.V.M.v X : f 7 ",
"h * o h [ | E } n 2 7 : # o O = = O O = : N [ / R R 9 * # $ $ 5 9 i i r m n x x n h O * O X O o $ 9 &.g.g.N O 8 ` q.w.9 ; m I L ",
"} x # a [ [ E n e i 3 O O O O = O . o = f } :.o.{ | E 9 7 3 - 9 l C M h 9 x n x x z - $ * * 3 5 8 a | v.E + X   * 8 e e M } | / ",
"/ U r s ~ / a a i : O O O $ * 3 O O O * L *.:.>.:.5.0.N 8 e e a C C L U i N n I M n - - : 3 r N I M h f * . o * r s h C I | :.#.",
"} / G 8 i 9 a 8 # X o O O $ - 5 $ O O * | 0.>.q.>.7.n.} 3 9 r h M x M L n x _ h.o.h - 9 9 x C E ..f X X O : h h n S I } | o.:.@.",
"[ ! +.s ; 8 : o o o O O O * ; 3 $ O X : 5.p.7.j.5.w.G...O O 9 n f h s 9 h C C p.:.} C m h [ O.o.*.9 5 9 - M o.n 7 S ] | :.&.0.q.",
"e r ^ ) x 7 $ + O O * 8 a h s i 9 i O 7 p.d.w.j.d.p.F.o.8 - f f i M 9 8 M [ n N E E | l.o.e.j.>.[ : n  .M L o.r $ 8 Y :.p.:.h a ",
"O : m } L M M , % < x D I L / | } R : 8 :.j.w.B.8.w.n.[ C M s r m C s l M ~ n M M e +.<.h.V.H.j.f O 5 L [ m C E P I L M N f i i ",
"f * C [ @.} 0.M < k M M m S L E X.;.o.C R n.n.G.d.d.*.n h N z z f s A A A I [ :.w.E ! r n R R q O O O f @.I E | | [ o.X.R E R C ",
"e O i  .:.g.g...8 x z h n m I E } o.q.M.E p.I.U.G.w.f 9 f h N f O * i x x A [ o.:.q.f $ * $ ; = * - f L } } R Y [  .E [  .H C C ",
"M e : N &.q.0.E s x h l h n M I [ @.q.V.#.} U.Y.n.h 5 9 M J C B & % = * 9 L E { [ &.E ; i < < 3 s M | S C L E | C L [ C H H M C ",
"D C s 8 H [ R s i h h a h x m C [ :.w.h.| N :.*.f 5 r r L 7. ._ ; = , + M E } o.&.o.:.g.W.x.M r F N I n N C h C E L N C E L C D ",
"C S M 9 7 9 5 3 e i s s l z U I [ } ,.m.U s a r 8 5 s n C :.&.o.h r p 0 ` :.*.w.w.:.d.R.!.R.y.M A x h n z f f n f f N E :.:.} S ",
"0.-.[ C 5 O O - 9 r a s l m z x C [ w.:.x s i e 9 : : L [ O.j.w.| o.:.:.>.p.:.e.d.d.p.Y.R.w.i ; 8 ` m m n M n n S N C o.p.p.F.v.",
"S.D.c.&.i X X * 9 e r A G l h x L L X.X.C i 5 ; ; + + 6 R :.<.:.| >.>.:.e.q.o.q.n.8.:.h.:.N q < < R C M N n h n s f H 3.p.S.f.i.",
"o.3.o._ L 8 X O 9 l M r r l h m m L } [ E m r < > @ + + > < h 1.#.w.y.j.k.V.:.x.n.d.:.1.C I } M 5 N &.C x x n h f d Y p.7.p.v.o.",
"L E L N z z : O r s h x a r a x n E C L I I h 9 = O O O $ 6 p / 8.:.>.y.P.V.x ..G.H.H.1.E [ } U f * L | R C n h i i L p.&.5.5.o.",
"I V z n f e 9 : i h e a x x x n x m 3 r D M x r < + = + 3 O.K.| | :.d.V.L.#.A o.L.I.H.o.| | / M n * O f E [ I z h i N 0.&. .[ ] ",
"L n e i 8 5 5 7 7 i a e i i i h m i o $ i C h s < + = % + r E F c D / O.P G t.C.L.K.G.n.e.:.L C M < O O * 8 h C H N n  .:. .[ L ",
"K C e 8 5 : : 5 7 8 9 a r a h C L : O o 7 p.:.h * O O O + O . 0 | w.>./ r 8 j.C.L.K.G.G.K.:.I L L 8 O O 8 h N [ o.] M C [ ] E Y ",
"L M m 8 : - * 3 7 8 3 8 t s h z r * ; O B g.d.E < O + 5 9 : : [ n.V.*.#.:.N G.V.C.I.K.n.n.k.U L R 5 - Y 5.&.o.o.[ _ n 8 o. ._ E ",
"C N n s : * $ * : 7 5 8 7 r s x * = = - E :.o.5.E 3 i M C C E 8.v.d.>.j.V.n w.C.j.n.G.V.d.C.| D R : L :.o.} } :.o.E N * N o._ Y ",
"C C n a - ; $ o * 5 3 9 r h m r 7 5 6 r R [ } [ | M m M C R :.8.>.d.n.j.G.f n G.C.j.d.j.j.j.j.D M i 5.:...[ o.5...o.M O * H [ [ ",
"L M z 8 O $ 3 3 5 5 5 5 7 e s a C L D N L E [ P } B h x h E *.:.w.j.:.>.n.8 3 L n.G.n.d.w.j.V.U 8 N :.[ / :.w.:.| &.9 X X * N E ",
"M f 9 *   X * e e 8 8 7 8 e 7 r n M n z M L E L [ f ; h M ..&.4.d.4...d.[ 3 8 3 i P { :.e.V.V.M : M } U 1.w.:.o.o.n O   X X + 8 ",
"* ; O     O 2 i x 9 e r e 2 5 9 h m h s n M L U [ n n :.:.*.:.>.*.o.7.*.9 : 8 5 h z 3 4 M E P C D L @.0.v.v.F.` f O   X X X O O ",
"9 7 ; O O * 7 a M s i r a r 3 9 i h a r f M C U U s } w.:.5.:.>.8.d.M.[ 5 : 8 L h.n._ R L M n n M L } 7.>.o.M 5 * X X X X X * 7 ",
"f i 9 8 3 5 i n s l r s x x r 3 r a i 9 5 s C U A 4 R o.:.:.:.*.w.j.j.G.h ; f n.G.V.h.d.} L S m M U M : < 3 ; 5 5 - : * & 7 h z ",
"b a i e 8 8 i a e c a a r h x 8 - 8 i 9 5 9 M I L 7 h } w.p.d.O.>.j.d.h.k 3 [ d.j.d.d.5.} U U D E / M O - 8 8 i 9 8 N f f M C C ",
"n f a i 9 5 2 r a a a r s z h h 5 ; 7 r 7 i x M U L 8 :.n.V.V.j.>.O.w.8.r i [ [ :.o.>.:.O.>.o.} o.| n O 7 i i f f f h C R C V h ",
"z a f i 8 - # 9 z e t r 9 i h l s 8 5 9 7 a x C U E D w.d.V.K.V.:.*.e.} t s U I U R | q.n.w.:.:.o.{ 5 5 f z f f f N E _ Y V b h ",
"a h a 8 7 5 * 2 e 7 8 r r t i i r r 8 3 3 e M L | / D #.#.:.w.d.e.d.8.a h h D I A L | h.n.j.8.>.o.n * n L n n f f E &.&.E N z i ",
"n N n i i z 2 O ; 3 7 7 e 8 e r e e 8 * 3 8 h U ) U U | o.:.q.n.M.:.h 7 x L D D C L L L | o.[ R h 9 9 n n C b f b  .&.%._ V b n ",
"M n z i i a : o - 3 7 7 9 i i 9 8 8 r f x M S E I ) / o.I E E L f 9 7 9 l L U e h C e ; 9 f i i r i 9 z C v N n N &.7.=.X.K C m ",
"K N n a a a - X $ 3 7 8 8 8 7 8 e _ o.} E E L U / } #.q.C 9 8 9 2 7 9 a D ! ^ M U [ | | E N h h s s 8 n n H M y b L -.=.[ C C f ",
"M N n f h 9 # o o ; 3 4 7 7 8 5 Y F.7.:.o.[ ! ~ | } :.h.o.s r e 3 : i C o.1.@.#.y.#.:.j.n.&.C S n s 2 h K Y n n n i n R _ E N M ",
"h N n h i : $ o $ 4 4 8 e e 7 z d.p.p.p.0.:.} / >.w.j.V.o.e a r 2 * - i L R n C :.M.V.n.n.V.E R M i 2 Y E C N M d f 9 g E _ L H ",
"N z f : # - O o ; 8 9 7 ; 1 4 I E ..g.F.g.5.[ E } F.K.J.o.i i h ; # O - m M x h x q.V.G.G.V.E R N 3 8 o. .Y H C i f 9 9 8 f n V ",
"; - O o - $   O 3 8 9 : : O 9 p.&.:.d.p.7.&.[ o.N L I.Y.R x a s ; O # h E L D n - i E } E h M N M C L $.v.&._ H N M f f 7 # O - ",
"f O   ; 2 X X $ 2 5 8 $ - 7 I p.4.5.&.&.&. .o.[ 5 5 I :.N n n x : # - D I L C C 5 i f h i * a L  .[ Y  .3.&.Y Y C Y n f 5 * 8 f ",
"' 7 o 7 O O * - 2 3 3 # * 5 R F.p.:.o. .o.:.[ 9 3 8 8 s n n C C i 2 5 D S S C n a n m M x 7 h &.&.I R L  . .o.M V N V f i 8 C T ",
"_ - 2 : O - X O ; 2 : O O 5 h :.g.p.p.5.&.C 7 5 7 i 9 - i x I E R I n L C M C i s S L S n f _ $._ M C L L H Y K C V I C h h E &.",
"5 O 5 $ * $ 5 f n e - O + - 7 i V L I n r 5 5 7 8 x 9 O ; f H [ [ R 9 n S M a 3 s S S I 9 M &.3.E L n L L H n C N M V h h i N L ",
"  * : - ; h L _ _ h ; O O . - 8 r e i 9 9 7 8 8 i n - O * 8 n L I N - x M h * * h x C h * f 7.7.R C C L Y L Y H n n N n n i 9 : ",
"X : * ; n V L E E i 2 O . O O : f a r 5 5 i r i x 7 O O * 5 i n V : 7 _ E E h $ 8 l i 2 f M &.3.[ H C n L C _ N N n z b a u i 8 ",
"$ # X i V M L L M 3 : 7 $ - 5 M M N z 9 : i s s r $ : 8 9 i i i 5 O f :.3.o.5.r O * 5 C &.p.0. .[ Y C n h h A m m b n M s i u 9 ",
"* O - h V C C K e O O 8 - 2 e C C z s i e 9 e r i m L E &.:.C 3 * * N &.p.} :.L X 3 S E 7.F.5. .[ _ _ E E n a x m i i n f a a i ",
"* ; 7 h S n m e $ o O : ; O 9 L S C x s s s 8 e x m C L | :.j._ H h L [ 2.E  .[ r M S ~ 0.p.:.E C E L L I M h s s n e 9 e e a f ",
"2 r l n z e 7 O * : 5 5 5 * 9 K E I L D L U x D A M L E :.g.&.R [ E E E } R [ U C } ~ [ } } R : 8 L C M M b f z s e a 3 ; 2 3 : ",
"9 e r a s - o - 5 8 i i : O 9 z M E _ _ } R n | o.[ | :.0. .H N H E K R E I } L n F.F.v.g._ 5 9 s i C V m n V C h 1 ; 9 - O O * ",
"3 8 9 e i 7 * - : 5 5 *   X a V h 9 i a 9 5 i L L [ } E n h h h 9 9 9 b [ :.o.E n h h N C 5 9 R R M m z n n h f i 3 - * 8 *   o ",
"2 5 5 h N R C - - * O       : b C n f f f f 5 K K x h h i f f i 5 - - 7 [ o.[ ~ [ f 2 - 8 3 z :.:.} L A h g a a e 7 8 * + 6 $ O ",
": 5 5 s n E &.f $ * * O     O g L Y  .X.o.i e X.0.,.o.@.L e a e 5 2 - ;  . .} [ &.m i 1 w 7 m I  .:.[ C h i e 8 5 9 8 - O : r = "
};
