/* XPM */
static char *_976d9f7b77a4cd7b919f335410ad0c7[] = {
/* columns rows colors chars-per-pixel */
"64 64 2 1 ",
"  c #362030",
". c #3D253B",
/* pixels */
"                                                                ",
"                                                                ",
"  ...........................    .............................  ",
"  ...........................    .............................  ",
"  ...........................    .............................  ",
"  ...........................    .............................  ",
"  ...........................    .............................  ",
"  ...........................    .............................  ",
"  ...........................    .............................  ",
"  ...........................    .............................  ",
"  ...........................    .............................  ",
"  ...........................    .............................  ",
"  ...........................    .............................  ",
"  ...........................    .............................  ",
"  ...........................    .............................  ",
"  ...........................    .............................  ",
"  ...........................    .............................  ",
"  ...........................    .............................  ",
"  ...........................    .............................  ",
"  ...........................    .............................  ",
"  ...........................    .............................  ",
"  ...........................    .............................  ",
"  ...........................    .............................  ",
"  ...........................    .............................  ",
"  ...........................    .............................  ",
"  ...........................    .............................  ",
"  ...........................    .............................  ",
"  ...........................    .............................  ",
"  ...........................    .............................  ",
"                                                                ",
"                                                                ",
"                                                                ",
"                                                                ",
"  ...........................    .............................  ",
"  ...........................    .............................  ",
"  ...........................    .............................  ",
"  ...........................    .............................  ",
"  ...........................    .............................  ",
"  ...........................    .............................  ",
"  ...........................    .............................  ",
"  ...........................    .............................  ",
"  ...........................    .............................  ",
"  ...........................    .............................  ",
"  ...........................    .............................  ",
"  ...........................    .............................  ",
"  ...........................    .............................  ",
"  ...........................    .............................  ",
"  ...........................    .............................  ",
"  ...........................    .............................  ",
"  ...........................    .............................  ",
"  ...........................    .............................  ",
"  ...........................    .............................  ",
"  ...........................    .............................  ",
"  ...........................    .............................  ",
"  ...........................    .............................  ",
"  ...........................    .............................  ",
"  ...........................    .............................  ",
"  ...........................    .............................  ",
"  ...........................    .............................  ",
"  ...........................    .............................  ",
"  ...........................    .............................  ",
"  ...........................    .............................  ",
"                                                                ",
"                                                                "
};
