/* XPM */
static char *ae868b0219154ad1a19d113bc637d8d0fdAE8YK0Tu2gzDfd[] = {
/* columns rows colors chars-per-pixel */
"80 80 180 2 ",
"   c #010001",
".  c #080204",
"X  c #03020B",
"o  c #0E020A",
"O  c #020313",
"+  c #0D0114",
"@  c #010915",
"#  c #02051B",
"$  c #01091C",
"%  c #020623",
"&  c #020924",
"*  c #02072B",
"=  c #020B2C",
"-  c #02122E",
";  c #030733",
":  c #020C33",
">  c #020E3A",
",  c #021135",
"<  c #03143C",
"1  c #031839",
"2  c #404001",
"3  c #031443",
"4  c #031942",
"5  c #04154B",
"6  c #031B4D",
"7  c #031651",
"8  c #041C51",
"9  c #081B56",
"0  c #031758",
"q  c #051C59",
"w  c #081F5A",
"e  c #03224D",
"r  c #08214F",
"t  c #062155",
"y  c #0A2657",
"u  c #05225B",
"i  c #05285E",
"p  c #031D63",
"a  c #052462",
"s  c #082565",
"d  c #052966",
"f  c #092A62",
"g  c #062569",
"h  c #09266C",
"j  c #072B6B",
"k  c #082A6C",
"l  c #0A316E",
"z  c #0A2770",
"x  c #062E75",
"c  c #0A2C74",
"v  c #062F7B",
"b  c #092F79",
"n  c #073175",
"m  c #093176",
"M  c #06327A",
"N  c #0A337D",
"B  c yellow",
"V  c #0A2F85",
"C  c #063582",
"Z  c #0A3583",
"A  c #063984",
"S  c #093A85",
"D  c #06338B",
"F  c #093589",
"G  c #053B8B",
"H  c #093A8C",
"J  c #053396",
"K  c #093592",
"L  c #0A3D94",
"P  c #093798",
"I  c #073999",
"U  c #0A3C9C",
"Y  c #113B98",
"T  c #0C3DA2",
"R  c #074197",
"E  c #0A4195",
"W  c #0B439C",
"Q  c #0B489C",
"!  c #0641A2",
"~  c #0A43A3",
"^  c #0C4BA7",
"/  c #0744AB",
"(  c #0B46AA",
")  c #0B4AAB",
"_  c #1143AB",
"`  c #0A46B2",
"'  c #074EB0",
"]  c #0A4BB5",
"[  c #0B4CBC",
"{  c #124AB5",
"}  c #104FBC",
"|  c #0C51B7",
" . c #0750BD",
".. c #0C52BC",
"X. c #1453B8",
"o. c #094EC3",
"O. c #0A53C4",
"+. c #0B58C5",
"@. c #0753CB",
"#. c #0A54CB",
"$. c #0758CE",
"%. c #095ACC",
"&. c #1151C0",
"*. c #1158C6",
"=. c #1152C8",
"-. c #0655D5",
";. c #0B55D3",
":. c #055AD6",
">. c #0B59D4",
",. c #0757DA",
"<. c #0B56D9",
"1. c #065ADC",
"2. c #0959DB",
"3. c #0756E6",
"4. c #0957E3",
"5. c #045AE3",
"6. c #055BE0",
"7. c #015EE2",
"8. c #0659E5",
"9. c #065AE4",
"0. c #025CE5",
"q. c #045DE5",
"w. c #045BE4",
"e. c #095CE0",
"r. c #0557E8",
"t. c #0459EB",
"y. c #065AEB",
"u. c #025CE9",
"i. c #015DEB",
"p. c #025EEA",
"a. c #035CEA",
"s. c #025BEC",
"d. c #035BEC",
"f. c #045AEC",
"g. c #025DEC",
"h. c #005DEF",
"j. c #035CEE",
"k. c #035BEC",
"l. c #085AEA",
"z. c #0859EC",
"x. c #0257F7",
"c. c #0457F1",
"v. c #0359F1",
"b. c #015BF1",
"n. c #015BF0",
"m. c #025AF1",
"M. c #0159F2",
"N. c #0158F3",
"B. c #0359F2",
"V. c #0658F0",
"C. c #045BF2",
"Z. c #015CF1",
"A. c #015DF3",
"S. c #035CF0",
"D. c #0158F5",
"F. c #025BF5",
"G. c #005BF6",
"H. c #025BF6",
"J. c #025AF5",
"K. c #045AF6",
"L. c #015CF5",
"P. c #025CF7",
"I. c #025BF4",
"U. c #0557FC",
"Y. c #0256FB",
"T. c #0259F8",
"R. c #005BF9",
"E. c #0358FA",
"W. c #0259FA",
"Q. c #0359FA",
"!. c #015AFB",
"~. c #025AFA",
"^. c #0458FA",
"/. c #0458FB",
"(. c #035DF9",
"). c #015CFB",
"_. c #015BFC",
"`. c #005DFC",
"'. c #005CFE",
"]. c #005CFC",
/* pixels */
"B B B B B B B B B B B B B B B B B B B B B B B B B B B B B B B B B B B B B B B B B B B B B B B B B B B B B B B B B B B B B B B B B B B B B B B B B B B B B B B B ",
"B B B B B B B B B B B B B B B B B B B B B B B B B B B B B B B B B B B B B B B B B B B B B B B B B B B B B B B B B B B B B B B B B B B B B B B B B B B B B B B B ",
"B B B B B B B B B B B B B B B B B B B B B B B B B B B B B B B B B B B B B B B B B B B B B B B B B B B B B B B B B B B B B B B B B B B B B B B B B B B B B B B B ",
"B B B B B B B B B B B B B B B B B B B B B B B B B B B B B B B B B B B B B B B B B B B B B B B B B B B B B B B B B B B B B B B B B B B B B B B B B B B B B B B B ",
"B B B B B B B B B B B B B B B B B B B B B B B B B B B B B B B B B B B B B B B B B B B B B B B B B B B B B B B B B B B B B B B B B B B B B B B B B B B B B B B B ",
"B B B B B B B B B B B B B B B B B B B B B B B B B B B B B B B B B B B B B B B B B B B B B B B B B B B B B B B B B B B B B B B B B B B B B B B B B B B B B B B B ",
"B B B B B B                                                                                                                                         2 B B B B B ",
"B B B B B B                                                                                                                                         2 B B B B B ",
"B B B B B B                                                                                                                                         2 B B B B B ",
"B B B B B B                                                                                                                                         2 B B B B B ",
"B B B B B B                                                                                                                                         2 B B B B B ",
"B B B B B B                                                                                                                                         2 B B B B B ",
"B B B B B B                                                                                                                                         2 B B B B B ",
"B B B B B B                                                                                                                                         2 B B B B B ",
"B B B B B B                                                         . X X O O O O X X X   .       .                                                 2 B B B B B ",
"B B B B B B                                                       X # * < 8 a j l f t 5 = & O X . .                                                 2 B B B B B ",
"B B B B B B                                                 O & 5 k E [ ;.1.6.5.6.1.1.1.O.) S a , # X X                                             2 B B B B B ",
"B B B B B B                                             O & s U <.q.j.J.x.R.R./.U./.R.R.v.L.j.1.| S 4 & X                                           2 B B B B B ",
"B B B B B B                                         X = j ~ -.8.v.v.j.y.t.8.1.-.-.-.,.3.C.v.v.j.j.0.@.U w $ X .                                     2 B B B B B ",
"B B B B B B                                     . O < L ;.j.S.a.q.6.@.` I F x j j j x F T ] $.1.a.L.K.y.&.m : X .                                   2 B B B B B ",
"B B B B B B                                 . X = k O.j.R.R.:.' N 6 > * O X X     . X X O # , y H [ r.v.v.8.[ a $ .                                 2 B B B B B ",
"B B B B B B                                 X : C O.a.'.R.C.! 8 & X X X             . .     X O : q -.v.J.J.l.O.g #                                 2 B B B B B ",
"B B B B B B                               . = U 6.S.R.`.`.J.~ < . .                           . X < -.v.J.J.R.L.#.c $                               2 B B B B B ",
"B B B B B B                             X : H 1.R.R.'.`.`.R.:.x O X                             & C v.R.R.R.R.R.j.$.j $                             2 B B B B B ",
"B B B B B B                             & M :.R.`.'.`.`.`.'.d.] = X                           X e O.J.R.R.R.'.'.R.v.#.n #                           2 B B B B B ",
"B B B B B B                           X j #.J.'.'.`.`.'.`.R.S.,.d O X .                       # S w.J.R.R.R.R.R.R.`.S.#.5 O                         2 B B B B B ",
"B B B B B B                         X < ..d.R.R.`.`.`.`.`.R.J.j.] > X .                     X 8 #.J.R.R.'.'.R.`.R.R.R.y.Y >                         2 B B B B B ",
"B B B B B B                         * F r.J.R.`.`.`.`.`.'.R.R.J.1.M O .                   X * W d.J.R.'.'.'.'.`.R.R.R.J.;.N #                       2 B B B B B ",
"B B B B B B                       O a @.S.R.`.R.`.`.`.`.'.'.R.R.J...< X                   O s 1.J.R.R.'.'.'.R.R.`.`.`.L.a.[ < X                     2 B B B B B ",
"B B B B B B                       & R q.R.`.`.`.'.`.`.`.`.`.'.'.'.6.A $                   = / L.R.R.R.R.'.`.R.R.`.`.`.R.R.6.n O                     2 B B B B B ",
"B B B B B B                     X u -.S.R.`.'.`.`.`.`.`.`.`.'.'.'.K.#.a X               # Z 0.K.R.R.'.'.`.`.`.R.`.`.R.R.R.S.+.,                     2 B B B B B ",
"B B B B B B                     # H a.L.`.`.`.`.`.`.`.`.`.`.`.'.`.R.r.~ =             X 3 [ j.R.R.R.R.R.R.R.`.`.`.`.`.R.R.L.2.d X . .               2 B B B B B ",
"B B B B B B                     : } J.R.`.`.`.`.`.`.`.`.`.`.`.`.R.R.j.$.r         .   X m 6.R.'.R.R.R.R.R.R.`.`.`.'.`.`.R.R.y.U # X .               2 B B B B B ",
"B B B B B B                   X w 2.R.R.`.`.`.`.`.`.`.`.`.`.`.`.R.R.j.O.< X O # O O X X u ;.J.R.R.R.R.R.`.`.`.`.`.`.`.`.R.R.J..., X .               2 B B B B B ",
"B B B B B B                   X Z 5.R.`.`.`.`.`.'.`.`.`.`.`.`.R.R.J.1.H % , g C Z j 3 # : _ d.L.R.R.`.R.R.`.`.'.`.`.`.`.`.'.'.2.t X                 2 B B B B B ",
"B B B B B B                   O ~ j.`.`.`.`.`.`.`.`.`.`.`.`.'.R.'.J.O.q 5 ^ 1.q.5.1.{ t * h 2.R.R.R.R.R.`.`.`.`.`.`.`.`.`.'.'.8.n O                 2 B B B B B ",
"B B B B B B                   & [ R.`.'.`.`.`.`.`.`.`.`.'.'.'.R.R.6.F 0 ) t.J.J.K.K.C.#.g > W j.R.'.R.R.`.`.`.`.`.`.`.`.`.`.`.y.H #                 2 B B B B B ",
"B B B B B B                 X , #.'.'.'.'.`.'.`.`.`.`.'.`.'.R.J.8.( 7 L 5.J.R.R.'.R.R.j.| 5 8 +.j.R.R.R.R.'.'.`.`.`.'.`.`.R.R.S.~ *                 2 B B B B B ",
"B B B B B B .               X , #.'.R.'.R.`.R.R.R.R.'.'.'.R.R.C.&.t 7 O.j.R.R.`.`.R.R.J.2.b * x -.J.R.R.R.'.R.`.R.R.R.R.R.R.R.S.) =                 2 B B B B B ",
"B B B B B B .               X , ;.R.L.L.S.S.S.S.L.L.S.L.S.S.S.<.Z & u ;.S.J.R.R.R.R.R.R.k.R $ : ! 8.v.S.L.L.S.S.S.S.L.S.j.S.`.J.) =                 2 B B B B B ",
"B B B B B B .               X < ;.R.r./ M x x x v v v M M M n y % O w ;.L.J.R.R.R.R.R.R.y.L # + , f x n n M n m m m m x v ] C.v.) =                 2 B B B B B ",
"B B B B B B                 X , ;.R.1.D & $ # # # # # $ $ $ $ O X O 5 O.S.J.L.R.R.R.R.L.1.g O X X O # $ # # # # # # # # > P C.j.^ :                 2 B B B B B ",
"B B B B B B                 X : #.R.8.K O                     .   X = H q.S.R.R.`./.R.v.^ -                         X X : U v.j.W =                 2 B B B B B ",
"B B B B B B               . X % [ J.j.( # .                         O , Q 1.v.R.R.L.a.=.9 O . .                     X X 3 ] v.y.H % X               2 B B B B B ",
"B B B B B B                 . # ~ v.S.O.= X                           X < L O.:.:.@.W 8 O . . .                       X u #.v.t.x # X .             2 B B B B B ",
"B B B B B B                 . X A v.J.2.3 X                 . .         O = 5 p a 8 : O   .   .                       X N ,.J.2.e X   .             2 B B B B B ",
"B B B B B B                     i 8.R.y.j O                           O , < 5 5 3 3 > - @ .                           # ( y.S.[ -                   2 B B B B B ",
"B B B B B B                     , +.v.K.( ,                       . O 5 X.$.$.#.#.#.O...N &                         X < >.R.j.U @ .                 2 B B B B B ",
"B B B B B B                     $ L t./.;.k O                       - W 8.S.L.L.J.J.J.v.#.n %                       $ b z.K.e.k X                   2 B B B B B ",
"B B B B B B                     X u -.v.t.~ = X                   O d $.J.L.R.R.`.'.R.R.v.#.q X                     4 ] /.C.*.<                     2 B B B B B ",
"B B B B B B                     . * W r.L.1.x #                   3 +.J.J.R.R.`.`.`.'.R.R.v.] > X                 # G r.J.8.F #                     2 B B B B B ",
"B B B B B B                     . # j #.L.a.] < X             X O Z 8./.R.'.R.`.`.`.'.'.R.'.2.b #               O 8 O.S.J.@.6 X                     2 B B B B B ",
"B B B B B B                       X , L a.J.3.L #             O 8 O.j.J.'.'.R.R.`.`.`.`.R.`.C.] 4 X           X , ( t.L.6.G % .                     2 B B B B B ",
"B B B B B B                         X 3 O.v.Y.1.j #         X , ( d.R.R.`.`.R.R.`.`.'.'.R.`.R.q.G &   . .   X * G q.L.S.^ < X                       2 B B B B B ",
"B B B B B B                           O b -.J.v.#.c % X . X % c 4.'.'.`.`.`.`.`.`.`.'.'.'.'.`.L.#.u X . . X = V :.J.k.:.t O                         2 B B B B B ",
"B B B B B B                             : I j.J.0.#.s # X O 6 ` y.R.`.`.`.`.`.`.`.`.'.'.`.`.`.'.6.~ * X . & v $.d.J.2.E $ X                         2 B B B B B ",
"B B B B B B                             X 1 ) y.R.j.O.j * ; ~ 8.R.R.`.`.`.`.`.`.`.`.'.`.`.`.'.'.R.8.h * = Z :.S.L.w.L < X                           2 B B B B B ",
"B B B B B B                               X < ( t.J.a.-.I J 2.L.R.'.R.R.`.`.`.`.`.`.`.`.`.`.`.`.R.L.o.D ( 4.j.t.1.L < O                             2 B B B B B ",
"B B B B B B                               . X 4 ~ 1.v.J.t.t.v.J.R.R.'.'.`.`.'.`.`.`.`.`.`.`.`.`.'.R.c.3.t.R.S.:.L : O                               2 B B B B B ",
"B B B B B B                               . . X < H >.c.J.L.J.J.J.R.'.'.`.`.`.`.`.`.`.`.`.`.`.`.'.'.R.J.v.j.>.H 3 O                                 2 B B B B B ",
"B B B B B B                                 .   X % u ) 2.j.v.J.R.R.'.'.`.`.`.`.`.`.`.`.`.`.`.`.R.R.L.j.>.W 6 $ o .                                 2 B B B B B ",
"B B B B B B                                       X O 3 Z ..q.j.L.R.'.R.R.`.`.`.`.'.'.`.`.R.R.R.L.j.1.[ N , O . . .                                 2 B B B B B ",
"B B B B B B                                           X $ 3 Z ] 6.j.j.S.J.R.R.R.R.R.R.'.R.L.S.j.>.) k < O X                                         2 B B B B B ",
"B B B B B B                                               X # : q N ^ O.:.6.t.t.8.q.t.8.-.o.~ M 6 & X X .                                           2 B B B B B ",
"B B B B B B                                                   X X O % : 4 e a z z h a 8 < * # X       .                                             2 B B B B B ",
"B B B B B B                                                           X X X O O O O O X                                                             2 B B B B B ",
"B B B B B B                                                               X         . .                                                             2 B B B B B ",
"B B B B B B                                                                                                                                         2 B B B B B ",
"B B B B B B                                                                                                                                         2 B B B B B ",
"B B B B B B                                                                                                                                         2 B B B B B ",
"B B B B B B                                                                                                                                         2 B B B B B ",
"B B B B B B                                                                                                                                         2 B B B B B ",
"B B B B B B                                                                                                                                         2 B B B B B ",
"B B B B B B                                                                                                                                         2 B B B B B ",
"B B B B B B B B B B B B B B B B B B B B B B B B B B B B B B B B B B B B B B B B B B B B B B B B B B B B B B B B B B B B B B B B B B B B B B B B B B B B B B B B ",
"B B B B B B B B B B B B B B B B B B B B B B B B B B B B B B B B B B B B B B B B B B B B B B B B B B B B B B B B B B B B B B B B B B B B B B B B B B B B B B B B ",
"B B B B B B B B B B B B B B B B B B B B B B B B B B B B B B B B B B B B B B B B B B B B B B B B B B B B B B B B B B B B B B B B B B B B B B B B B B B B B B B B ",
"B B B B B B B B B B B B B B B B B B B B B B B B B B B B B B B B B B B B B B B B B B B B B B B B B B B B B B B B B B B B B B B B B B B B B B B B B B B B B B B B ",
"B B B B B B B B B B B B B B B B B B B B B B B B B B B B B B B B B B B B B B B B B B B B B B B B B B B B B B B B B B B B B B B B B B B B B B B B B B B B B B B B ",
"B B B B B B B B B B B B B B B B B B B B B B B B B B B B B B B B B B B B B B B B B B B B B B B B B B B B B B B B B B B B B B B B B B B B B B B B B B B B B B B B "
};
