/* XPM */
static char *_27dacb442774599cd51e1d743f1ebaf0DxhMB6M8AoXT2Mf[] = {
/* columns rows colors chars-per-pixel */
"80 80 190 2 ",
"   c #000000",
".  c #090303",
"X  c #020B03",
"o  c #040209",
"O  c #040B09",
"+  c #021304",
"@  c #021B05",
"#  c #031609",
"$  c #081209",
"%  c #011C09",
"&  c #032406",
"*  c #032A06",
"=  c #03240A",
"-  c #032B0B",
";  c #04330D",
":  c #043C0E",
">  c #022D10",
",  c #043412",
"<  c #053B12",
"1  c #093E16",
"2  c #063E18",
"3  c #05410D",
"4  c #054315",
"5  c #084316",
"6  c #074C16",
"7  c #084C17",
"8  c #074419",
"9  c #034A19",
"0  c #094C1B",
"q  c #045314",
"w  c #085A16",
"e  c #05541B",
"r  c #09531C",
"t  c #065A1C",
"y  c #095B1E",
"u  c #056D1C",
"i  c #065520",
"p  c #0A5522",
"a  c #025F20",
"s  c #0A5C22",
"d  c #0A6323",
"f  c #046B24",
"g  c #0B6C26",
"h  c #0B642B",
"j  c #07692B",
"k  c #0B6C29",
"l  c #007227",
"z  c #0C742C",
"x  c #0D7B2E",
"c  c #10712A",
"v  c #117C2E",
"b  c #0A6A30",
"n  c #0E7B31",
"m  c #117B32",
"M  c #00842D",
"N  c #0B832D",
"B  c #028D2F",
"V  c #0B8B2E",
"C  c #04942E",
"Z  c #0D8432",
"A  c #008E30",
"S  c #0E8B35",
"D  c #0E8C38",
"F  c #138336",
"G  c #128C35",
"H  c #128A39",
"J  c #039334",
"K  c #039B33",
"L  c #0C9B34",
"P  c #0E943A",
"I  c #079B39",
"U  c #0C9C3B",
"Y  c #11943C",
"T  c #119B3C",
"R  c #01A234",
"E  c #02A438",
"W  c #0BA43C",
"Q  c #00AB39",
"!  c #0EAB3E",
"~  c #10A23D",
"^  c #02B33C",
"/  c #03B93E",
"(  c #0C9C40",
")  c #149D40",
"_  c #0EAC43",
"`  c #0FA748",
"'  c #12A442",
"]  c #13AB43",
"[  c #14AC49",
"{  c #0DB544",
"}  c #0BBF44",
"|  c #0DB549",
" . c #0EBB4A",
".. c #12B345",
"X. c #11BF44",
"o. c #12B44B",
"O. c #12BB4A",
"+. c #00C341",
"@. c #0CC546",
"#. c #02CC45",
"$. c #0FCE46",
"%. c #0DC44B",
"&. c #0DCC4D",
"*. c #11C146",
"=. c #10CB45",
"-. c #12C24B",
";. c #11CC4E",
":. c #00D447",
">. c #09D445",
",. c #02DB45",
"<. c #0ADB46",
"1. c #03D348",
"2. c #0DD34D",
"3. c #02DD4B",
"4. c #0ADC4E",
"5. c #11D64D",
"6. c #11DE4C",
"7. c #0DCC52",
"8. c #13C451",
"9. c #13CE51",
"0. c #0DD552",
"q. c #0CDC52",
"w. c #0FD758",
"e. c #11D353",
"r. c #11DB55",
"t. c #02E647",
"y. c #03EE47",
"u. c #05E44C",
"i. c #0FE24C",
"p. c #0AE54E",
"a. c #06EB4B",
"s. c #03ED4B",
"d. c #04ED48",
"f. c #01EB4E",
"g. c #01EC4C",
"h. c #03EF4C",
"j. c #03EE4D",
"k. c #03ED4F",
"l. c #02EF4E",
"z. c #02EE4F",
"x. c #06ED4C",
"c. c #04ED4E",
"v. c #07ED4F",
"b. c #04EF4F",
"n. c #07EE4D",
"m. c #04EC4D",
"M. c #09EB4A",
"N. c #0AE84F",
"B. c #09EC4D",
"V. c #08E94D",
"C. c #05F147",
"Z. c #02F348",
"A. c #03F24A",
"S. c #02F24B",
"D. c #02F14D",
"F. c #02F14E",
"G. c #02F14F",
"H. c #03F24E",
"J. c #06F04F",
"K. c #03F14B",
"L. c #05E550",
"P. c #07E450",
"I. c #04E753",
"U. c #06E654",
"Y. c #07E651",
"T. c #09E050",
"R. c #0AE351",
"E. c #08E252",
"W. c #08E453",
"Q. c #09E651",
"!. c #0BE452",
"~. c #04EB50",
"^. c #06E952",
"/. c #07EB52",
"(. c #03ED50",
"). c #03EE52",
"_. c #05EC50",
"`. c #07ED51",
"'. c #05ED53",
"]. c #05EC55",
"[. c #04ED52",
"{. c #09E955",
"}. c #09EA54",
"|. c #0CE259",
" X c #07EB58",
".X c #03F150",
"XX c #03F052",
"oX c #04F151",
"OX c #04F252",
"+X c #04F152",
/* pixels */
"                                                                                                                                                                ",
"                                                                                                                                                                ",
"        X                                                                                                                         # % % +                       ",
"                                                                                                                              9 ^ 1.1.1.#./ E a %               ",
"                                                                                                                          > J ~.D.K.D.D.D.OXOXOX1.9 X           ",
"                                                                                                                        4 #.OXXXl.b.'.U.3.P.).K.K.t.C X         ",
"                                                                                                                      + V `.J.b.i.*.S j i k J / t.s.t.4         ",
"                                                                                                                      e q.b.b.;.y               # 3.l.R         ",
"                                                                                                                    = { ~.{.8.<               + g W.l.,.-       ",
"                                                                                                                  X g P.`.o.5 O             . r r.f.l.t.,       ",
"                                                                                                                  = ' b.W.k +             O = [ a.s.).K X       ",
"                                                                                                                  r &.l.%.;             X 1 ' ~.C.V.I #         ",
"                                                                                                                  z T.b.W +             < { ~.M.4.k +           ",
"                                                                                                                  n T.b.I +       . X , _ N.B.2.d               ",
"                                                                                                                  z q.b.W +       X = Y P.b.r.Z X               ",
"                                                                                                                  t 2.`.{ @     X : U p.d.;.x X                 ",
"                                                                                                                  - ..l.2.< . X < -.W.b.e.s +                   ",
"                                                                                                                  + x a.u.z + 3 *.V.V.2.d +                     ",
"                                                                                                                  O r 5.a.! q ! p.s.q.S & .                     ",
"                                                                                                                  . @ ] ~.p.>.b.K.q.Y =   o                     ",
"                                                                                                                  . O g p.y.s.D.!.x = .                         ",
"                                                                                                                    X t <.K.b.l.%.* .                           ",
"                                                                                                                    - ] ~.OX`.XXq.7 X                           ",
"                                                                                                              o X : ~ {.+Xq.@.}.`.Y =                           ",
"                                                                                                            . o 3 *.}.'.e.d : e.K.;.7                           ",
"                                                                                                            . 1 *.OXOX7.p + X G f.p.Z X                         ",
"                                                                                                          X - ` }.+Xq.z +     y W.V.~ +                         ",
"                                                                                                        X r ] /.OX&.z $       * e.f.%.-                         ",
"                                                                                                    . + y ;.`.+X;.r @         @ -.f.0.<                         ",
"                                                                        X = , 0 i r 7 ; % X .       # k 0.`.`.;.0 X           @ O.f.q.5                         ",
"                                                                      + 7 P  .5.q.r.e...D r - X   + t 7.`.OXq.k O             & *.a.q.2                         ",
"                                                                . X , ) q.~.~.a.d.d.d.a.~.W.5.U q Y 0.`.OX;.z X               ; q.V.7.,                         ",
"                                                                X r o.~.J.`./.2.*.X.-.q.W.N.M.b.T.{.OXXX2.t +                 S ~.V._ @                         ",
"                                                                5 9.V.V.q.T y = @ + + = 0 D @.).XXOX`.0.d X                 r q.l.|.x X                         ",
"                                                              X Y }.b.q.S ; +           X : U '.OXD.V.L * .                 ..`.).o.5                           ",
"                                                              < w.K.V.P @               + x q.OX).l.V.@.x 7 ; @ + + @ < x &.N.b.q.r +                           ",
"                                                            X v {.d.*.;                 g q.OXXX1.&.T.N.p.4.&.{ ! ! { &.P.l.b.r.k O                             ",
"                                                            + ' ).!.N X               r 2.OX`.&.q 1 n %.T.~.).`.`.`.l.l.~.q.*.d +                               ",
"                                                            + O.l.5.y               - ] `.`.q.z X . + 0 T &.!.P.U.W.V.p.0.Y r +                                 ",
"                                                          . @ %.l.=.6             4 ] '.`.7.x +             ; s z n z r & +                                     ",
"                                                          . @ -.l.$.q           4 &.`.`.&.p +                                                                   ",
"                                                            @ ..l.q.d       o 5 &.OX`.7.y X                                                                     ",
"                                                            X U l.!.n O o + ; { OX`.q.z #                                                                       ",
"                                                              g V.~.' @ @ g X.`.~.%.z #                                                                         ",
"                                                              ; r.`.&.w Z q.`.`.%.5 +                                                                           ",
"                                                              + ( `.V.>.i.OX'. .4 . .                                                                           ",
"                                                                p T.D.).OX`.0.p X                                                                               ",
"                                                                @ } V.XXOX>.u X .                                                                               ",
"                                                          . . + c !.OXXXK.W.Y + .                                                                               ",
"                                                            + m q.OXOX4.P.V.e., .                                                                               ",
"                                                          @ d 9.`.'.2.N  .`. Xb                                                                                 ",
"                                                        @ F e.`.`...r @ x p.OX` X                                                                               ",
"                                                      & H q.`.{.] - O o 8 2.).9.*                                                                               ",
"                                                    = S !.OX{.T *     o = } b.!.4                                                                               ",
"                                                  @ g 0.OX{.O.; X     o @ _ b.p.r                                                                               ",
"                      X + + + + X X           o @ G q.OX~.P ; .         + ~ V.~.h                                                                               ",
"                X @ 8 Z ..@.&.@.| G d - X     @ G {.OX~.T - X           # ' N.~.h                                                                               ",
"              X 7 [ r.~.`.s.l.).`.~.W.9.D < & Y !.OX~._ = X             = *.D.p.p                                                                               ",
"              t @.P.V.V.`.p.4.T.}.~.).b.T.! C q.OX`.@.7 X               7 4.Z.6.:                                                                               ",
"          + f f.l.W.q...z r 7 e d S ` 2.V.a.l.OX{. .y X                 T ~.K.X.@                                                                               ",
"          M f.XX`.%.z               @ f 4.l.OXXX>.q +                 Z q.l.P.n                                                                                 ",
"        4 3.XXOX7.7                 - [ /.OXXXs.4.S                 P q.l.p.O.=                                                                                 ",
"        J XXOX{.j                 @ x q.+X`.a.y.b.{.2.W x p e y N -.T.`.P.-.d                                                                                   ",
"      = :.XXOXU                 @ H q.XX'.%.L *.|.~.K.s.~.!.!.{.l.K.y.N.O.8 X                                                                                   ",
"      e ).l.u.=               + m |.XX+X..: + & s ' 9.q.W.V.b.`.V.p.2.S ; X                                                                                     ",
"      A ).l.B               + n !.OX`._ - .       X @ 1 k S S D x r - X                                                                                         ",
"      Q ).3.e             @ r e.OX/.{ <                                                                                                                         ",
"      Q ).+.=           # n 2.OX}.S ,                                                                                                                           ",
"      M ).#.,         & F q.+X`.Z +                                                                                                                             ",
"      9 f.:.9       - T W.OXW.N +                                                                                                                               ",
"      % #.f.l     > H !.OX{.' %                                                                                                                                 ",
"        l l.^   < %.P.OXW.Z =                                                                                                                                   ",
"        X E ).:.).l.XX{.h                                                                                                                                       ",
"          + B ).).).l.K O                                                                                                                                       ",
"            # Q f.f.^ -                                                                                                                                         ",
"              X 9 4 +                                                                                                                                           ",
"                                                                                                                                                                ",
"                                                                                                                                                                ",
"                                                                                                                                                                ",
"                                                                                                                                                                "
};
