/* XPM */
static char *_73a4ad284914aa4b812ea3fb00447721l4TlXhNumOJpPhO[] = {
/* columns rows colors chars-per-pixel */
"80 80 190 2 ",
"   c #000000",
".  c #0A0604",
"X  c #0E0906",
"o  c #130903",
"O  c #1E0E06",
"+  c #140C09",
"@  c #1F0F08",
"#  c #1F1107",
"$  c #1E110A",
"%  c #200F08",
"&  c #201007",
"*  c #281205",
"=  c #201109",
"-  c #2A180F",
";  c #341707",
":  c #361907",
">  c #3E1D07",
",  c #361A09",
"<  c #3A1D0C",
"1  c #2D1C11",
"2  c #342014",
"3  c #3D2314",
"4  c #421E06",
"5  c #4B2105",
"6  c #44230C",
"7  c #48240F",
"8  c #512203",
"9  c #502A0F",
"0  c #462613",
"q  c #492611",
"w  c #442816",
"e  c #4C2B14",
"r  c #442B1C",
"t  c #492C1A",
"y  c #532E1E",
"u  c #5C381E",
"i  c #642D07",
"p  c #7A3406",
"a  c #74370D",
"s  c #79360A",
"d  c #72380F",
"f  c #6C3716",
"g  c #673916",
"h  c #6B3916",
"j  c #673A1D",
"k  c #69391D",
"l  c #743710",
"z  c #733D17",
"x  c #733D19",
"c  c #523221",
"v  c #5E3921",
"b  c #623A21",
"n  c #6A3A21",
"m  c #774216",
"M  c #784317",
"N  c #77421A",
"B  c #79431A",
"V  c #6F422A",
"C  c #7A4626",
"Z  c #7F4924",
"A  c #843E11",
"S  c #97470F",
"D  c #9A450E",
"F  c #9E4A0F",
"G  c #8F4614",
"H  c #954612",
"J  c #9C4510",
"K  c #974C16",
"L  c #9B4B15",
"P  c #974D1A",
"I  c #9A4D1A",
"U  c #9F5117",
"Y  c #9D521A",
"T  c #A6470B",
"R  c #A14B0E",
"E  c #B64C0F",
"W  c #BA510C",
"Q  c #A24E12",
"!  c #A54D1F",
"~  c #A84C1D",
"^  c #B54F14",
"/  c #A15116",
"(  c #A15219",
")  c #AA571E",
"_  c #B65314",
"`  c #BD5415",
"'  c #BF5A17",
"]  c #B4521B",
"[  c #BC5219",
"{  c #9C4D24",
"}  c #9F4C29",
"|  c #8E532F",
" . c #945127",
".. c #9E5425",
"X. c #97522A",
"o. c #9D552B",
"O. c #9D592E",
"+. c #905634",
"@. c #915835",
"#. c #9C5B35",
"$. c #A14D25",
"%. c #A14F28",
"&. c #A15424",
"*. c #A25529",
"=. c #A65A29",
"-. c #AC5D2D",
";. c #B95C21",
":. c #B15D28",
">. c #B06024",
",. c #CD5509",
"<. c #C05615",
"1. c #CB5710",
"2. c #C65D16",
"3. c #C95D16",
"4. c #C65D1A",
"5. c #C95C19",
"6. c #E15E1A",
"7. c #DE620E",
"8. c #DE6C0F",
"9. c #C56017",
"0. c #C5621A",
"q. c #C9611A",
"w. c #DC6613",
"e. c #DE6A14",
"r. c #D5661A",
"t. c #DE641A",
"y. c #D56919",
"u. c #DD691A",
"i. c #DB711A",
"p. c #E1640E",
"a. c #EE6A0F",
"s. c #F76706",
"d. c #FD6501",
"f. c #F66A05",
"g. c #FA6904",
"h. c #F3660B",
"j. c #F76709",
"k. c #F2660D",
"l. c #F96708",
"z. c #FB6708",
"x. c #F3680B",
"c. c #F76808",
"v. c #F6680A",
"b. c #F66C0B",
"n. c #F5690C",
"m. c #F66C0D",
"M. c #F56C0E",
"N. c #F96A09",
"B. c #F9690A",
"V. c #F6710C",
"C. c #FA700D",
"Z. c #E06511",
"A. c #E26514",
"S. c #E16A13",
"D. c #EE6A12",
"F. c #ED6915",
"G. c #EB6C15",
"H. c #E0601D",
"J. c #E46C19",
"K. c #EA6D1A",
"L. c #F46611",
"P. c #F56E12",
"I. c #F96C13",
"U. c #F66A1A",
"Y. c #F96C19",
"T. c #EC7015",
"R. c #EB701A",
"E. c #F47112",
"W. c #C36621",
"Q. c #C36829",
"!. c #CA6E2E",
"~. c #DC6522",
"^. c #D46826",
"/. c #DA6A23",
"(. c #CF7129",
"). c #DC742F",
"_. c #D47436",
"`. c #DC7637",
"'. c #E46B25",
"]. c #E96C26",
"[. c #E46C2C",
"{. c #EA6E2A",
"}. c #F66820",
"|. c #E77223",
" X c #EF7823",
".X c #EC7028",
"XX c #E4792D",
"oX c #F07521",
"OX c #F07629",
"+X c #E57B36",
/* pixels */
"                                                                                                                                                                ",
"                                                                                                                                                                ",
"        = , , , , , , , , , , : ; ; ; ; &                   $ , < < < < < < < < < < < < < < < < , O                 O : > < < < < < < < < < < < < < < *         ",
"        x ;.' <.<.<.<.` ` ` ` _ _ _ _ ] f                   b :.4.5.5.5.5.5.5.5.5.5.5.5.4.4.4.4._ i                 i _ 3.3.3.3.3.5.4.3.3.3.3.3.4.4.4.A         ",
"        H G.B.B.z.z.z.j.j.c.n.n.n.x.x.a.G                   B e.z.d.g.g.g.g.g.g.g.g.g.g.g.g.g.g.p.p                 x t.g.z.z.s.j.j.j.c.c.c.c.c.c.c.c.L         ",
"        H D.c.z.j.k.L.D.D.D.F.F.L.j.z.c.H                   B S.z.d.z.c.m.m.m.m.m.m.m.m.P.B.z.g.p.s                 x u.g.z.z.j.c.c.c.c.c.c.c.c.s.s.c.L         ",
"        H D.s.h.D J H H H H H H T ,.z.c.K                   B e.z.k.^ L I I I I I I P I Q 1.c.d.Z.s                 x u.c.k.E J L L I I L L L W s.z.c.L         ",
"        S x.j.A.                o p j.s.Y                   B e.B.t.<                   o s c.d.w.s                 z u.s.p.>                 5 z.c.m.R         ",
"        D c.n.~.                o p j.s.(                   B S.c.~.,                   o d b.d.w.s                 z e.s.Z.>                 5 c.g.E.R         ",
"        L c.n.~.                o s j.s.(                   B e.j.~.<                   o d b.d.w.p                 z e.s.w.<                 8 z.g.P.F         ",
"        Q b.n.~.                o s c.s.(                   B e.z.t.<                   o d c.g.w.p                 z e.f.w.<                 8 s.g.m.I         ",
"        Q b.n.~.                o s c.f.Y                   B e.z.t.<                   o l x.g.w.p                 z e.f.u.<                 8 s.g.P.K         ",
"        Q m.n.~.                o s c.s.(                   B S.z.t.<                   o d c.d.7.p                 z e.s.w.<                 8 z.g.P.K         ",
"        L m.n.~.                o s c.s.(                   B J.z.t.<                   o d s.d.w.d                 z e.s.w.<                 5 z.g.E.P         ",
"        L m.n.~.                o s c.s.(                   B J.z.t.<                   o d s.d.w.h                 x e.s.w.<                 5 z.g.E.K         ",
"        L m.n.~.                o s c.c.(                   B J.z.t.<                   o d c.d.r.k                 x e.s.w.<                 5 z.g.P.P         ",
"        Q m.n.~.                o p c.c.(                   B J.z.t.<                   o l c.d.r.k                 x e.s.w.<                 6 z.g.P.P         ",
"        Q b.n.'.                o p c.c.(                   B S.z.t.<                   o l B.d.r.k                 x e.s.w.<                 6 c.c.E.K         ",
"        Q b.B.].                o p c.c./                   B e.z.t.<                   o l z.d.r.j                 z e.s.w.<                 6 c.c.E.K         ",
"        Q b.B.{.                o p c.c./                   B e.z.t.<                   o l z.d.r.j                 z e.s.w.<                 6 s.c.E.K         ",
"        Q b.c.].                o p c.c./                   N e.c.t.<                   o l z.d.r.j                 z e.s.w.<                 6 b.c.E.K         ",
"        Q b.B.{.                o p c.c./                   N e.c.t.<                   o l z.d.r.j                 z e.s.w.<                 6 b.g.E.K         ",
"        Q b.B..X                o p c.c./                   N e.c.t.<                   o l z.d.r.j                 z e.s.w.<                 7 b.g.P.K         ",
"        Q b.B..X                o p c.c./                   N e.z.Z.<                   o s z.d.r.j                 z e.s.w.<                 7 b.g.P.K         ",
"        / b.B..X                o p c.g./                   m e.z.Z.<                   o s B.d.r.j                 z e.s.w.<                 7 b.g.P.P         ",
"        Q b.B..X                o s c.c./                   M e.z.w.<                   o s B.d.r.j                 z e.s.w.<                 7 b.g.P.P         ",
"        Q b.B..X                o s c.c./                   M e.B.w.<                   o d B.d.r.j                 z e.s.w.<                 7 b.g.P.I         ",
"        Q b.B..X                o s c.c./                   m e.B.w.<                   o d B.d.r.j                 z e.s.w.<                 7 b.g.P.I         ",
"        Q b.B..X                o p c.c./                   m e.B.w.<                   o d B.d.r.j                 z e.s.w.<                 7 b.g.P.I         ",
"        Q b.B..X                o p c.c./                   B e.c.e.<                   o l B.d.r.j                 z e.s.w.<                 7 b.g.P.I         ",
"        Q b.B..X                o p c.c./                   B e.c.e.<                   o l B.d.r.j                 z e.s.w.<                 7 b.c.P.I         ",
"        Q b.B..X                o p c.c./                   B e.c.u.<                   o l B.d.r.j                 z e.s.w.<                 6 V.c.P.I         ",
"        / b.c..X                o s B.c./                   B e.c.u.<                   o d B.d.r.j                 z e.s.w.<                 6 V.c.m.I         ",
"        / b.c..X                o s c.c./                   B e.c.u.<                   o d B.d.r.j                 z e.s.w.<                 6 V.c.m.I         ",
"        Q b.B..X                o s c.c./                   B e.c.t.<                   o d B.d.r.k                 z e.s.w.<                 6 V.g.m.I         ",
"        Q b.c..X                o s c.s./                   B e.c.t.<                   o d B.d.r.k                 z e.s.w.<                 6 V.g.m.I         ",
"        Q b.c.{.                o s c.s./                   M e.d.t.<                   o d s.d.r.k                 z e.s.w.<                 6 V.g.m.I         ",
"        Q b.c.{.                o s c.c./                   B e.d.t.<                   o d s.d.r.k                 z e.s.w.<                 6 V.g.m.I         ",
"        Q b.c.{.                o s c.c./                   B e.d.t.<                   o d s.d.r.k                 z e.s.w.<                 6 V.d.m.I         ",
"        Q b.c.{.                o s c.c./                   B e.d.t.<                   o d c.d.r.k                 z e.s.w.<                 6 V.d.m.I         ",
"        Q m.j.{.                o s c.c./                   B e.d.t.<                   o d c.d.r.k                 z e.s.e.<                 6 b.g.m.K         ",
"        Q m.h.[.                o s z.g./                   B e.z.t.<                   o d B.d.r.k                 z e.s.e.<                 > m.d.P.K         ",
"        Q P.k.[.                o p c.s.U                   B S.z.H.<                   o d s.d.r.k                 x e.s.e.<                 > C.d.P.K         ",
"        Q m.n.].                o p c.c.U                   B S.z.6.<                   o a s.d.r.k                 x u.c.p.>                 4 B.d.m.K         ",
"        Q B.d.L.I { { { { $.$.$.~ 1.z.c./                   B e.d.k.] $.$.$.$.$.$.{ } } ! 1.g.d.r.k                 x u.g.h._ ! $.$.$.%.%.%.$.[ c.g.m.K         ",
"        Q c.d.z.L.U.U.U.U.U.U.U.I.n.g.c.(                   B e.d.z.I.U.U.U.U.U.U.U.U.}.P.B.d.d.r.k                 x u.d.c.I.P.U.I.Y.U.U.U.U.I.g.g.E.Y         ",
"        Q b.d.d.g.z.d.d.d.d.d.d.c.z.g.c.U                   B e.d.d.d.d.z.z.z.z.d.d.d.d.g.g.d.d.r.n                 x u.d.g.g.c.c.d.d.d.d.d.d.d.g.d.E.Y         ",
"        Q b.g.d.d.d.d.d.d.d.d.d.d.d.d.c./                   B e.d.d.d.d.d.d.d.d.d.d.d.d.d.d.d.d./.n                 x u.g.d.d.d.d.d.d.d.d.d.d.d.d.d.E.I         ",
"        Q b.g.d.d.d.d.d.d.d.d.d.d.d.d.c./                   B e.d.d.d.d.d.d.d.d.d.d.d.d.d.d.d.d./.n                 x u.g.d.d.d.d.d.d.d.d.d.d.d.d.d.E.I         ",
"        Q b.g.d.d.d.d.d.d.d.d.d.d.d.d.c./                   B e.d.d.d.d.d.d.d.d.d.d.d.d.d.d.d.d.r.k                 x u.g.g.d.d.d.d.d.d.d.d.d.d.d.d.P.I         ",
"        Q b.g.d.d.d.d.d.d.d.d.d.d.d.d.g./                   B e.d.d.d.d.d.d.d.d.d.d.d.d.d.d.d.d.r.k                 x u.g.g.d.d.d.d.d.d.d.d.d.d.d.d.E.I         ",
"        Q b.g.d.d.d.d.d.d.d.d.d.d.d.d.g./                   B e.d.d.d.d.d.d.d.d.d.d.d.d.d.d.d.d.r.k                 x u.g.g.d.d.d.d.d.d.d.d.d.d.d.d.E.I         ",
"        Q b.g.g.d.d.d.d.d.d.d.d.d.d.d.g./                   B e.d.d.d.d.d.d.d.d.d.d.d.d.d.d.d.d.r.k                 x u.g.d.d.d.d.d.d.d.d.d.d.d.d.d.E.Y         ",
"        Q f.g.g.d.d.d.d.d.d.d.d.d.d.d.g./                   B e.d.d.d.d.d.d.d.d.d.d.d.d.d.d.d.d.y.k                 x u.g.d.d.d.d.d.d.d.d.d.d.d.d.g.V.Y         ",
"        Q f.g.g.d.d.d.d.d.d.d.d.d.d.d.c./                   B e.d.d.d.d.d.d.d.d.d.d.d.d.d.d.d.d.y.h                 x u.g.d.d.d.d.d.d.d.d.d.d.d.d.g.V.I         ",
"        Q f.g.g.d.d.d.d.d.d.d.d.d.d.d.c./                   B e.d.d.d.d.d.d.d.d.d.d.d.d.d.d.d.d.y.h                 x u.d.d.d.d.d.d.d.d.d.d.d.d.d.g.V.Y         ",
"        R f.g.g.d.d.d.d.d.d.d.d.d.d.d.c./                   B e.d.d.d.d.d.d.d.d.d.d.d.d.d.d.d.d.y.h                 x u.d.d.d.d.d.d.d.d.d.d.d.d.d.g.V.I         ",
"        R f.g.g.d.d.d.d.d.d.d.d.d.d.d.c./                   B e.d.d.d.d.d.d.d.d.d.d.d.d.d.d.d.d.r.k                 x u.d.d.d.d.d.d.d.d.d.d.d.d.d.g.V.I         ",
"        R f.g.g.d.d.d.d.d.d.d.d.d.d.d.c./                   B e.d.d.d.d.d.d.d.d.d.d.d.d.d.d.d.d.r.k                 x u.d.d.d.d.d.d.d.d.d.d.d.d.d.d.m.I         ",
"        Q f.g.g.d.d.d.d.d.d.d.d.d.d.d.c./                   M e.d.d.d.d.d.d.d.d.d.d.d.d.d.d.d.d.r.k                 x u.d.d.d.d.d.d.d.d.d.d.d.d.d.d.m.I         ",
"        Q b.g.g.d.d.d.d.d.d.d.d.d.d.d.c.(                   M e.d.d.d.d.d.d.d.d.d.d.d.d.d.d.d.d.r.k                 x t.d.d.d.d.d.d.d.d.d.d.d.d.d.d.m.I         ",
"        Q b.g.g.d.d.d.d.d.d.d.d.d.d.d.c.(                   M e.d.d.d.d.d.d.d.d.d.d.d.d.d.d.d.d.r.k                 x J.d.d.d.d.d.d.d.d.d.d.d.d.d.d.m.I         ",
"        Q f.g.g.d.d.d.d.d.d.d.d.d.d.d.c.(                   m e.d.d.d.d.d.d.d.d.d.d.d.d.d.d.d.d.r.k                 x u.d.d.d.d.d.d.d.d.d.d.d.d.d.d.m.I         ",
"        Q f.g.g.d.d.d.d.d.d.d.d.d.d.d.z.(                   m 8.d.d.d.d.d.d.d.d.d.d.d.d.d.d.d.d.r.k                 z t.d.d.d.d.d.d.d.d.d.d.d.d.d.d.I.I         ",
"        Q x.s.d.d.d.d.d.d.d.d.g.g.g.g.s.(                   B 8.g.d.d.d.d.d.d.d.d.d.d.d.d.d.g.g.r.k                 x r.d.d.d.d.d.d.d.d.d.d.d.d.d.g.I.{         ",
"        Y T.x.c.c.c.B.B.B.b.b.b.b.b.m.E.&.                  B i.b.b.c.b.b.b.c.c.c.c.m.B.B.B.c.d./.n                 n ^.c.B.m.B.B.B.B.B.B.B.B.B.b.b.oX .        ",
"        Z 0.2.2.2.5.5.5.q.q.q.q.q.q.0.W.Z                   v >.9.3.3.2.2.3.3.2.3.3.5.5.3.3.3.3.-.c                 y -.2.3.5.3.3.3.3.3.3.3.5.4.q.9.Q.C         ",
"        1 0 7 7 7 7 q q q q q q 7 q 0 0 1                   $ 3 q q 7 7 q q q q q q q q 7 7 7 7 3 $                 = 3 0 q 7 7 7 7 7 7 7 7 7 7 0 0 w -         ",
"    + $ $ $ = = $ $ $ # = = = = & & = = $ $ $ .         + $ = = @ = % @ O O O O O O O @ $ $ $ $ & = $ .         . $ = = $ # # % @ O O O @ $ $ $ $ $ = & $ X     ",
"  . V o.o.*.*.*.*...&.&.&.&.&.&.&.&.&.*...o.+.1         b O.*.*.&.*.&.{ { { { { { { { ..........&.*.@.1         2 #.*.*...&.&.&.&.$.$.{ &.&.*.*.*...&.&.| r     ",
"  o =.|.K.K.K.K.R.K.G.G.T.T.T.T.T.G.G.G.K.K._.0          .|.K.K.K.K.K.G.G.G.G.G.G.G.K.K.K.J.J.T.D.R._.w         e +XK.K.G.G.G.G.G.G.F.G.G.T.T.T.T.J.K.D.!.b     ",
"  o ) P.g.g.g.g.f.f.g.g.g.g.g.d.d.d.d.d.d.c./.7         { Y.z.z.d.d.d.d.d.d.d.d.d.d.d.d.g.g.g.f.g.b.).q         9  Xx.s.f.f.f.g.g.g.g.g.g.g.g.g.g.f.g.g.y.g     ",
"  o =. XP.P.E.E.E.P.P.P.P.P.P.P.I.P.P.P.P.E.).0         X.OXP.P.P.P.m.m.I.I.I.P.P.P.m.m.m.P.E.E.V.E.`.w         e XXR.E.E.E.P.P.P.P.P.P.P.P.I.I.P.E.E.E.(.j     ",
"  . t j h h h h h h h h h h h h g g g g h g v $         r n g g g g g g h h f f h h g g g g h h g g b $         = j g g g g g g f f f f f h h h h h g g u 1     ",
"                                                                                                                                                                ",
"                                                                                                                                                                ",
"                                                                                                                                                                ",
"                                                                                                                                                                ",
"                                                                                                                                                                ",
"                                                                                                                                                                "
};
